<?xml version="1.0" encoding="UTF-8" standalone="no"?>
<!-- Created with Inkscape (http://www.inkscape.org/) -->

<svg
   xmlns:dc="http://purl.org/dc/elements/1.1/"
   xmlns:cc="http://creativecommons.org/ns#"
   xmlns:rdf="http://www.w3.org/1999/02/22-rdf-syntax-ns#"
   xmlns:svg="http://www.w3.org/2000/svg"
   xmlns="http://www.w3.org/2000/svg"
   xmlns:sodipodi="http://sodipodi.sourceforge.net/DTD/sodipodi-0.dtd"
   xmlns:inkscape="http://www.inkscape.org/namespaces/inkscape"
   width="210mm"
   height="297mm"
   viewBox="0 0 210 297"
   version="1.1"
   id="svg8"
   inkscape:version="0.92.5 (2060ec1f9f, 2020-04-08)"
   sodipodi:docname="enemy.svg"
   inkscape:export-filename="C:\Users\ajalv\Documents\kivy_game\assets\images\enemy2.png"
   inkscape:export-xdpi="96"
   inkscape:export-ydpi="96">
  <defs
     id="defs2" />
  <sodipodi:namedview
     id="base"
     pagecolor="#ffffff"
     bordercolor="#666666"
     borderopacity="1.0"
     inkscape:pageopacity="0.0"
     inkscape:pageshadow="2"
     inkscape:zoom="4"
     inkscape:cx="312.31568"
     inkscape:cy="713.57139"
     inkscape:document-units="mm"
     inkscape:current-layer="layer4"
     showgrid="false"
     inkscape:window-width="1920"
     inkscape:window-height="1001"
     inkscape:window-x="-9"
     inkscape:window-y="-9"
     inkscape:window-maximized="1"
     inkscape:object-nodes="true" />
  <metadata
     id="metadata5">
    <rdf:RDF>
      <cc:Work
         rdf:about="">
        <dc:format>image/svg+xml</dc:format>
        <dc:type
           rdf:resource="http://purl.org/dc/dcmitype/StillImage" />
        <dc:title />
      </cc:Work>
    </rdf:RDF>
  </metadata>
  <g
     inkscape:groupmode="layer"
     id="layer4"
     inkscape:label="Layer 4"
     style="display:inline"
     sodipodi:insensitive="true">
    <path
       inkscape:connector-curvature="0"
       id="path1046"
       d="m 68.942129,102.68503 -0.0234,-1.26285 0.21047,-0.90036 0.28063,-0.39757 0.29233,-0.292324 0.42095,-0.888669 0.65481,-1.894274 0.64312,-0.900364 0.68989,-1.333008 0.58465,-0.841899 0.18709,-0.584652 -0.12863,-0.35079 0.16371,-0.537879 0.51449,-0.526188 0.3391,-0.350792 c 0,0 0.64311,-0.163701 0.68989,-0.187087 0.0468,-0.02339 0.8302,-0.584653 0.8302,-0.584653 l 0.64312,-0.643117 0.79513,-0.783434 0.0234,-0.292325 0.53788,-0.444336 0.71327,-0.467722 h 0.76005 l 0.57296,-0.339098 0.53788,-0.479415 0.3391,-0.152011 0.23386,-0.397563 0.0585,-0.409254 0.26894,-0.222168 0.76148,-0.343308 1.79781,-0.495501 0.60657,0.03068 0.13203,0.09593 0.10852,0.09405 0.12299,0.115755 0.2067,0.124023 0.74724,0.32453 0.25839,-0.05995 0.24908,-0.08061 0.24494,-0.09509 0.14263,-0.05478 0.78238,-0.01138 0.55707,0.05168 0.44752,0.05271 0.65526,0.115755 0.39067,0.109553 0.51677,0.11679 0.58911,0.177768 0.36793,0.107487 0.39998,0.131257 0.23461,0.06718 0.12092,0.06408 0.62839,0.0083 c 0,0 0.0816,-0.02791 0.0879,-0.02791 0.006,0 0.11679,-0.04961 0.11679,-0.04961 l 0.0599,-0.04857 0.0899,-0.05271 0.24598,-0.0072 c 0,0 0.12506,0.01344 0.1664,0.02687 l 0.62892,0.09103 0.29817,0.09354 0.3391,0.09355 0.33325,0.111084 0.44434,0.228014 0.2397,0.181242 0.11693,0.146163 0.0117,0.163703 0.11109,0.140316 0.076,0.374178 0.12277,0.298172 0.0994,0.122777 0.2631,0.0877 0.3391,0.09939 0.38002,0.04677 0.36248,-0.03508 0.34495,-0.08185 0.28063,0.04093 0.37856,0.233861 0.18856,0.134467 1.40901,1.221923 1.157611,1.467477 0.33229,0.73989 0.01,0.24117 -0.0556,0.17101 -0.0365,0.07308 v 0.119854 l 0.0509,0.134168 0.003,0.117239 0.0349,0.324174 -0.0292,0.24263 -0.0194,0.225399 -0.0176,0.287943 -0.0702,0.178318 0.006,0.382948 0.12758,0.451334 0.0555,0.201705 0.0332,0.17132 0.39172,0.125701 0.21047,0.315711 0.13637,0.275939 0.10816,0.239708 0.16753,0.364259 -0.0477,0.34317 -0.0634,0.264867 0.0234,0.31279 -0.0263,0.204629 0.038,0.26017 0.0751,0.220392 0.0418,0.206403 0.0313,0.264242 0.0585,0.280633 0.0585,0.204628 0.0242,0.139172 0.27772,0.31572 0.12196,0.22038 -0.003,0.29233 0.0768,0.37596 0.0139,0.24962 0.0155,0.33503 -0.007,0.37824 0.01,0.34965 -0.0448,0.29055 -0.13355,0.23272 -0.0409,0.11108 -0.12278,0.14909 -0.0175,0.21046 -0.0323,0.1666 -0.0468,0.038 -0.0125,0.23796 0.39461,0.6835 0.13552,0.55339 -0.33073,0.3638 -0.5636,0.12291 v 0.0731 l -0.1111,0.56419 -0.1052,0.47941 0.1783,0.39172 -0.30106,0.30988 -0.2193,0.37127 -0.3509,0.90036 -0.1784,0.42095 -0.0378,0.49696 0.45605,0.40354 0.17831,0.3654 2.4e-4,0.0346 -2.021431,3.62631 -0.31477,-0.0449 -0.68112,0.33624 -0.2309,0.0234 -0.58563,0.11203 -1.83186,0.98121 -0.10232,0.003 -0.006,0.13154 -0.0643,0.11986 -0.34787,0.23094 -0.27478,0.0906 -0.25433,0.12278 -0.30489,0.11203 -0.26017,0.0614 -0.39172,0.13739 -0.44433,0.14032 -0.423,0.11603 -0.37126,0.1754 -0.31366,0.22891 -0.26309,0.25725 -0.23591,0.29727 -0.21049,0.32449 -0.3654,0.19001 -0.30987,0.11693 -1.11084,0.0437 -0.19291,-0.1052 -0.27186,0.0117 -0.17921,-0.0604 -1.00471,-0.20851 -0.58757,0.0585 -0.63727,-0.0176 -0.0906,0.0175 -0.50573,0.27772 -0.33325,0.23094 -0.52116,-0.001 -0.50437,0.0331 -0.64365,0.2251 -0.36249,0.26601 -0.54828,0.0546 -0.56242,-0.0977 -0.6034,-0.17512 -3.23701,-1.0748 -0.7931,-0.42871 -0.37417,-0.73958 -0.31277,-0.66065 -0.41752,-0.42009 -1.25678,-0.75241 -0.53743,0.008 -1.72806,-1.71153 0.0909,-0.12402 0.0413,-0.34727 -0.11576,-0.51263 -0.0662,-0.30592 0.0496,-0.10749 -0.33072,-0.32246 -0.72761,-0.97565 -0.80202,-1.45521 c 0,0 -0.41341,-1.00872 -0.44648,-1.04179 -0.0331,-0.0331 -0.37207,-0.91778 -0.37207,-0.91778 l -0.19844,-0.56224 -0.34726,-0.3886 -0.37265,-0.33744 -0.24555,-0.21047 -0.43187,-1.2215 -0.12402,-0.86816 -0.058,-0.66406 z"
       style="display:inline;fill:#838383;fill-opacity:1;stroke:#000000;stroke-width:0.26458332px;stroke-linecap:butt;stroke-linejoin:miter;stroke-opacity:1" />
  </g>
  <g
     inkscape:groupmode="layer"
     id="layer3"
     inkscape:label="Layer 3"
     style="display:inline;opacity:0.35"
     sodipodi:insensitive="true">
    <path
       style="fill:#2f2f2f;fill-opacity:1;stroke:none;stroke-width:0.26458332px;stroke-linecap:butt;stroke-linejoin:miter;stroke-opacity:1"
       d="m 77.947054,115.5217 0.909505,-0.1819 0.628385,-0.13229 0.380339,-0.14883 0.446484,0.0165 0.446485,-0.0331 0.132291,-0.21497 1.008724,-0.46302 0.214974,-0.33073 0.08268,-0.3638 -0.694532,-0.3638 -0.198437,-0.29766 v -0.38034 0 l 0.04641,-0.0685 c 0,0 0.181242,0.55542 0.678196,0.64604 0.496953,0.0906 1.099145,-0.0175 1.099145,-0.0175 0,0 0.368332,-0.10524 0.514495,-0.30402 0.146161,-0.19878 0.32448,-0.38003 0.321559,-0.6782 -0.0029,-0.29817 -0.119854,-0.60219 -0.119854,-0.60219 0,0 -0.140319,-0.23679 -0.230938,-0.3391 -0.09062,-0.10231 -0.333251,-0.27186 -0.333251,-0.27186 l -0.14324,-0.0204 0.0877,-0.0263 0.08185,-0.003 0.08478,0.009 0.108161,0.0439 c 0,0 0.286478,0.13155 0.426794,0.2894 0.140317,0.15786 0.204629,0.23094 0.315714,0.36834 0.111083,0.13739 0.07016,0.22509 0.13447,0.23093 0.06431,0.006 0.07893,-0.0965 0.07893,-0.0965 l 0.163703,-0.0351 0.257247,-0.0468 0.362484,-0.12571 0.225092,-0.10231 0.154932,-0.0848 0.14324,-0.13447 0.154932,-0.19002 0.04093,-0.1257 0.0146,-0.0731 0.192937,-0.009 0.172471,-0.0819 0.131548,-0.0994 0.146161,-0.11693 0.0877,-0.12862 0.114006,-0.11986 0.108162,-0.1637 0.114006,-0.26602 0.06724,-0.20463 -0.0058,-0.0877 0.0029,-0.0497 0.14324,-0.1637 0.134469,-0.19586 0.184166,-0.25725 0.128625,-0.19293 0.125698,-0.24263 c 0,0 0.108162,-0.18417 0.114009,-0.19586 0.0058,-0.0117 0.05262,-0.13155 0.05262,-0.13155 l 0.01754,-0.14616 -0.07016,-0.21047 -0.06431,-0.3011 -0.02923,-0.26017 0.0058,-0.23094 0.03508,-0.22801 0.05554,-0.19294 0.09354,-0.21924 0.04092,-0.0585 -0.0088,0.19294 v 0.0994 l -0.01169,0.1257 0.01461,0.14909 0.038,0.20462 0.0497,0.17832 0.10523,0.20171 0.13447,0.14324 0.0731,-0.003 0.3011,0.23971 0.19878,0.0701 0.26894,0.0906 0.28648,0.0234 0.30402,-0.0263 0.32448,-0.0497 0.46188,-0.0906 0.22801,-0.0702 0.30402,-0.0936 0.25433,-0.0819 0.23093,-0.0877 0.25433,-0.19293 0.20463,-0.19878 0.21339,-0.26017 0.17832,-0.24556 0.20171,-0.43556 0.0818,-0.28648 0.0555,-0.26309 0.0263,-0.20463 -0.0117,-0.25433 -0.0234,-0.29524 -0.0497,-0.23386 -0.0585,-0.17833 -0.0848,-0.20755 -0.0819,-0.19293 -0.11109,-0.14032 -0.1257,-0.14032 -0.11108,-0.0994 -0.10816,-0.12277 -0.11108,-0.0936 -0.16078,-0.11108 -0.1374,-0.0935 -0.10523,-0.0526 -0.11693,-0.0468 -0.16371,-0.0322 -0.19001,-0.0234 -0.14909,-0.0117 -0.17247,0.003 -0.10231,-0.003 -0.13155,-0.0117 -0.11401,0.0146 -0.14616,0.0497 -0.17247,0.0234 -0.14616,0.0468 -0.12863,0.0409 -0.14324,0.0409 0.17832,-0.11985 0.0906,-0.0643 0.11985,-0.0789 c 0,0 0.0994,-0.0702 0.11109,-0.0789 0.0117,-0.009 0.11108,-0.0672 0.11108,-0.0672 l 0.14616,-0.0585 0.16078,-0.076 0.1257,-0.0439 0.14909,-0.0468 0.11401,-0.006 0.13739,0.003 0.14616,0.0322 0.21925,0.0438 0.24263,0.0848 0.2894,0.13739 0.18417,0.0789 c 0,0 0.114,0.0702 0.1257,0.0731 0.0117,0.003 0.16078,0.0935 0.16078,0.0935 l 0.12277,0.10232 0.21048,0.18416 0.13154,0.15494 0.14617,0.21047 0.0906,0.19586 0.0585,0.0965 0.0409,0.10523 0.0438,0.12863 0.0439,0.15493 0.0614,0.17832 0.0263,0.11108 0.0468,0.0643 -0.0292,-0.13154 c 0,0 -0.0117,-0.0994 -0.0117,-0.11109 0,-0.0117 -0.0146,-0.16954 -0.0146,-0.16954 l -0.0204,-0.12278 -0.0409,-0.1754 -0.0146,-0.15201 c 0,0 -0.0234,-0.10524 -0.0263,-0.11693 -0.003,-0.0117 -0.0409,-0.14908 -0.0409,-0.14908 l -0.076,-0.14324 -0.0438,-0.16371 -0.1056,-0.29947 -0.13229,-0.21084 -0.1447,-0.2067 -0.2067,-0.17364 -0.1571,-0.10748 -0.0331,-0.0785 0.11576,-0.0827 0.13229,-0.14882 0.1695,-0.12816 0.10748,-0.0909 0.10749,-0.11576 0.0289,-0.14469 0.0951,-0.0744 0.0331,-0.0951 0.0868,-0.10335 0.11989,-0.15296 0.17777,-0.17777 0.10748,-0.20671 0.11163,-0.14469 c 0,0 0.0661,-0.14056 0.0827,-0.15296 0.0165,-0.0124 0.10748,-0.21084 0.10748,-0.21084 l 0.062,-0.19844 0.0579,-0.268719 -0.0207,-0.1943 -0.0289,-0.21911 v -0.0992 l -0.0413,-0.0579 -0.0165,-0.0786 0.0951,-0.0703 0.21911,-0.12816 0.14883,-0.07028 0.11162,-0.08268 0.14469,-0.08682 0.10749,-0.148828 c 0,0 0.12816,-0.09922 0.14469,-0.111622 0.0165,-0.01241 0.11162,-0.128157 0.11162,-0.128157 l 0.12403,-0.144695 0.0992,-0.144693 0.0455,-0.103354 0.12815,-0.252179 0.0496,-0.111623 0.0496,-0.177765 0.0331,-0.09509 0.0413,-0.06615 0.1323,-0.11162 0.10748,-0.165365 0.0372,-0.08682 0.0579,-0.132292 0.0455,-0.115755 0.0124,-0.289388 -0.0331,-0.264584 -0.0207,-0.169497 0.004,-0.157096 -0.008,-0.148828 -0.004,-0.08682 0.0289,-0.124024 0.14883,-0.256315 0.10335,-0.20257 0.062,-0.181901 0.0868,-0.14056 0.0992,-0.219109 0.0744,-0.136425 0.0372,-0.157096 c 0,0 0.0744,-0.173633 0.0744,-0.190169 0,-0.01654 0.0785,-0.206706 0.0785,-0.206706 l 0.062,-0.132292 0.0951,-0.210841 0.0703,-0.186034 0.0827,-0.165364 0.0951,-0.194305 0.0413,-0.173633 0.12816,-0.264583 0.0481,-0.17957 0.13792,-0.291719 0.21498,-0.363802 0.16536,-0.429948 0.0992,-0.347266 -0.0496,-0.248047 0.44648,0.644922 0.34727,0.380339 0.52917,0.347265 0.38034,0.297657 0.810279,0.529166 0.23978,0.07441 0.091,-0.09095 -0.091,-0.272852 -0.0496,-0.148828 0.17602,0.346485 0.009,0.09062 0.007,0.0687 -0.006,0.08185 -0.0322,0.08039 -0.0234,0.09062 -0.0365,0.07308 v 0.119854 l 0.0248,0.05993 0.0131,0.0877 0.0161,0.103777 -0.006,0.103775 0.007,0.07893 0.007,0.08039 -0.0102,0.206089 0.006,0.166627 -0.0175,0.156392 -0.0146,0.05262 -0.003,0.235323 -0.0702,0.178318 -0.0146,0.154933 0.0205,0.228015 0.0906,0.342021 0.0819,0.2514 0.0468,0.178318 -0.003,0.05262 0.39172,0.125701 0.21047,0.315711 0.10816,0.222168 0.0672,0.146164 c 0,0 0.0701,0.131548 0.0789,0.14324 0.009,0.0117 0.0555,0.14324 0.0555,0.14324 l 0.0497,0.146164 0.0526,0.07893 v 0.07016 l -0.0205,0.105238 -0.0468,0.213397 -0.0146,0.09062 -0.0292,0.128622 0.0234,0.122777 v 0.190013 l -0.0263,0.204629 0.038,0.26017 0.0643,0.225089 0.0526,0.201706 0.0175,0.19878 0.038,0.16663 c 0,0 0.0234,0.13155 0.0263,0.14616 0.003,0.0146 0.0409,0.16955 0.0409,0.16955 l 0.0497,0.207554 0.14324,0.15494 0.13448,0.16078 0.0701,0.14616 0.0526,0.33033 0.0351,0.18124 0.038,0.23094 0.006,0.23386 0.0234,0.35079 -0.0146,0.19878 0.0146,0.32156 0.003,0.20755 -0.0322,0.22217 -0.0731,0.14909 -0.0731,0.15201 -0.0409,0.11108 -0.12278,0.14909 v 0.14616 l -0.0175,0.0643 0.003,0.0585 -0.0263,0.0643 -0.009,0.0438 -0.0468,0.038 c 0,0 0,0.0614 0,0.0731 0,0.0117 -0.0351,0.22509 -0.0351,0.22509 l 0.003,0.1257 0.0117,0.18709 0.009,0.11986 -0.0175,0.14616 -0.0351,0.14324 -0.0439,0.14324 -0.0672,0.11108 -0.0409,0.0965 -0.0643,0.10523 -0.0438,0.10817 -0.0439,0.11108 -0.0409,0.10231 0.003,0.11401 0.0292,0.0497 v 0.0731 l -0.0146,0.20463 -0.0614,0.21632 -0.0351,0.14324 -0.0789,0.16662 -0.0526,0.16955 0.0263,0.14324 c 0,0 0.0497,0.1257 0.0526,0.1374 0.003,0.0117 0.0848,0.11985 0.0848,0.11985 l 0.0409,0.13447 -0.0555,0.0789 -0.14324,0.14908 -0.10232,0.0819 -0.0702,0.0643 -0.0468,0.0614 -0.0292,0.0731 -0.0731,0.17247 -0.0439,0.14032 -0.0409,0.13154 -0.0585,0.15494 -0.0789,0.18124 -0.0585,0.14324 -0.0702,0.14908 -0.0848,0.14909 -0.0614,0.14908 -0.0322,0.12278 -0.0468,0.24556 0.009,0.2514 0.0848,0.0965 0.10523,0.0702 0.13155,0.14324 0.13447,0.0936 c 0,0 0.11108,0.1257 0.11401,0.14908 0.003,0.0234 0.0643,0.21632 0.0643,0.21632 l -0.0438,0.16663 -0.0702,0.12278 -0.009,-0.16078 -0.12863,-0.0555 -0.18709,0.12862 -0.2894,0.34494 -0.34787,0.53788 -0.19878,0.47942 -0.169554,0.50865 -0.163695,0.30402 -0.12278,0.33617 -0.0994,0.36833 -0.0555,0.48234 0.0555,0.0585 -0.0702,0.0322 c 0,0 -0.24263,-0.0322 -0.25432,-0.0322 -0.0117,0 -0.18124,-0.006 -0.18124,-0.006 l -0.15201,0.0497 -0.16078,0.0731 -0.24263,0.15494 -0.1257,0.0585 c 0,0 -0.0439,0.0585 -0.0672,0.0497 -0.0234,-0.009 -0.1637,-0.0263 -0.1637,-0.0263 l -0.24848,0.0263 -0.18416,0.038 -0.23679,0.14324 -0.27479,0.12862 c 0,0 -0.27478,0.11694 -0.28648,0.1257 -0.0117,0.009 -0.038,0.006 -0.0935,0.0438 -0.0555,0.038 -0.2397,0.13155 -0.2397,0.13155 l -0.28356,0.14616 -0.57003,0.30987 -0.10232,0.003 -0.006,0.13154 -0.0643,0.11986 -0.14616,0.0994 -0.20171,0.13154 -0.27478,0.0906 -0.25433,0.12278 c 0,0 -0.28648,0.10524 -0.30109,0.11108 -0.0146,0.006 -0.39464,0.11401 -0.39464,0.11401 l -0.48819,0.14032 -0.36833,0.11985 -0.27186,0.0819 -0.16955,0.0819 -0.20171,0.0935 -0.152,0.11985 -0.2134,0.15201 -0.16078,0.16663 -0.1374,0.14909 -0.14908,0.19585 -0.11109,0.17247 -0.0994,0.15202 -0.3654,0.19001 -0.30987,0.11693 -0.30402,0.0555 -0.33033,0.0789 -0.14324,0.0204 -0.16955,-0.0526 -0.1637,-0.0585 -0.15201,-0.0789 -0.0409,-0.0263 -0.11693,0.0117 h -0.15493 l -0.24555,-0.0877 -0.20463,-0.038 -0.16955,-0.0409 -0.24263,-0.0585 -0.321562,-0.0438 -0.336175,0.038 -0.251399,0.0205 -0.301096,-0.0146 -0.336177,-0.003 -0.09062,0.0175 -0.0877,0.0731 -0.418026,0.20462 -0.198781,0.14324 -0.13447,0.0877 -0.792204,-0.003 -0.526188,0.114 -0.35079,0.14617 -0.362484,0.26601 -0.318635,0.0585 -0.698659,-0.0263 -3.908401,-1.23946 -0.590497,-0.31571 -0.228016,-0.19879 -0.251399,-0.36248 -0.122777,-0.3771 -0.309867,-0.62265 -0.0029,-0.038 z"
       id="path911"
       inkscape:connector-curvature="0" />
  </g>
  <g
     inkscape:groupmode="layer"
     id="layer2"
     inkscape:label="Layer 2"
     style="display:inline"
     sodipodi:insensitive="true">
    <g
       id="g857">
      <path
         inkscape:connector-curvature="0"
         id="path833"
         d="m 73.901431,94.62682 c 0,0 1.570964,0.727605 2.860808,-2.794661 -0.248046,-0.975649 -1.587499,0.181903 -1.587499,0.181903 0,0 -0.529167,0.28112 -1.041797,1.405599 -0.51263,1.124479 -0.231512,1.207159 -0.231512,1.207159 z"
         style="fill:#000000;fill-opacity:1;stroke:#000000;stroke-width:0.26458332px;stroke-linecap:butt;stroke-linejoin:miter;stroke-opacity:1" />
      <path
         sodipodi:nodetypes="csccccccccccccccccccccccccccccccccccccccccccccccccccccccccccccccccccccccccssccccccccccccccccccccccccsccccccccccccccccccccccccccccccccccccccccccccccccccccccccccccccccccccccccccc"
         inkscape:connector-curvature="0"
         id="path837"
         d="m 73.787582,94.71315 c 0,0 0.281122,0.201413 0.325582,0.340873 0.04498,0.141083 -0.0694,0.438781 -0.0694,0.438781 l -0.532533,0.702588 0.02339,0.07308 0.07016,0.01169 0.07016,-0.01462 0.06139,-0.03216 0.09062,-0.09939 0.181242,-0.222168 0.09647,-0.122777 0.09062,-0.111084 0.119854,-0.04677 0.128623,-0.06431 0.0877,-0.076 0.03508,-0.09062 -0.01462,-0.128623 -0.05847,-0.114007 0.0058,-0.102315 0.03508,-0.05846 0.05262,-0.01169 0.05445,0.08504 0.03033,0.06112 0.03508,0.076 0.02046,0.04093 0.02923,0.04677 0.02631,0.06431 0.01754,0.02631 0.02046,0.04385 c 0,0 0.03508,0.02339 0.038,0.03508 0.0029,0.01169 0.03216,0.04385 0.03216,0.04385 l 0.04385,0.04969 0.038,0.01754 0.03962,0.01028 0.06855,0.0043 0.01754,-0.02046 -0.04969,-0.05846 -0.07016,-0.09647 -0.0088,-0.06724 0.0088,-0.08477 0.04969,-0.114007 0.01754,-0.05262 0.02631,-0.076 0.02046,-0.05846 0.0029,-0.06431 0.01709,-0.142484 -0.01654,-0.08268 -0.03307,-0.04134 0.03721,-0.03307 0.03721,-0.02894 0.09508,-0.02067 h 0.103353 l 0.09922,0.0083 0.07855,0.02894 c 0,0 0.06615,0.04134 0.08682,0.04547 0.02067,0.0041 0.04547,0.02894 0.07028,0.03721 0.0248,0.0083 0.107487,0.04961 0.107487,0.04961 l 0.04961,0.0248 0.04548,0.06201 0.05788,0.04547 0.07441,0.08268 0.04134,0.05788 0.04961,0.07028 0.02894,0.07441 0.165365,-0.04547 0.107487,-0.03307 0.09095,-0.04134 0.103353,-0.03721 0.09508,-0.05374 0.09508,-0.04548 0.05788,-0.04134 0.04961,-0.04134 0.04134,-0.03307 -0.0124,-0.01654 c 0,0 -0.05374,-0.0083 -0.08268,-0.0083 -0.02894,0 -0.124024,0.0124 -0.14056,0.0124 -0.01654,0 -0.115755,-0.04548 -0.115755,-0.04548 l -0.128158,-0.07855 -0.07441,-0.06615 -0.09095,-0.07441 -0.07855,-0.09922 -0.128157,-0.136426 -0.05788,-0.06615 -0.08268,-0.111621 -0.04961,-0.119889 -0.0041,-0.08682 0.16123,-0.206706 0.07855,-0.06201 0.09922,-0.07855 0.132292,-0.04134 0.144694,-0.02894 0.14056,-0.0124 0.132291,0.02894 0.07855,0.04961 0.05374,0.05374 0.06201,0.0083 v -0.04134 l 0.05374,-0.03307 0.144694,-0.0041 0.103353,0.06201 c 0,0 0.05788,0.04134 0.08682,0.05374 0.02894,0.0124 0.124024,0.07028 0.124024,0.07028 l 0.14056,0.09922 0.07028,0.04547 0.115755,0.115755 0.107487,0.09095 0.239778,0.239779 -0.39274,-0.578777 -0.194304,-0.330729 -0.08268,-0.235644 0.0083,-0.14056 0.0041,-0.04547 0.02481,-0.04134 0.06201,-0.03721 0.07028,-0.02067 0.09508,-0.0124 0.09508,-0.0124 0.09508,-0.0083 0.144694,-0.02894 -0.607714,-0.206706 -0.124024,-0.115755 -0.0248,-0.04547 -0.01654,-0.124023 0.0041,-0.07028 0.02481,-0.09095 0.05374,-0.09508 0.07028,-0.103352 0.08682,-0.06615 0.157096,-0.06201 0.124024,-0.06615 0.942578,-0.347265 0.152962,-0.111622 0.02067,-0.05374 -0.07441,0.02481 -0.06201,0.04134 -0.14056,0.03307 c 0,0 -0.115755,0.02894 -0.136426,0.03307 -0.02067,0.0041 -0.300555,0.05181 -0.300555,0.05181 l -0.359561,0.04531 -0.324482,0.0015 h -0.299634 l -0.08916,0.01462 -0.115468,0.09208 -0.371255,-0.135931 0.09062,0.09501 0.04969,0.08185 0.04677,0.10816 0.038,0.125701 -0.09208,0.247015 -0.05366,0.141075 -0.14366,0.336931 -0.179834,0.374137 -0.301791,0.537435 -0.137459,0.204639 -0.10542,0.144694 -0.223242,0.267684 -0.239779,0.235644 -0.189135,0.148828 -0.15503,0.101286 -0.14366,0.07855 -0.149862,0.06097 -0.178801,0.05788 -0.136425,0.02894 -0.06304,3.2e-5 -0.11989,0.01864 -0.09715,-0.0031 -0.09198,-0.0062 -0.09198,-0.01654 -0.06408,-0.0155 0.03307,0.02481 0.02687,0.02687 0.05684,0.05684 0.03307,0.04031 0.03101,0.04444 0.02067,0.05478 -0.04547,-0.21601"
         style="fill:#2f2f2f;fill-opacity:1;stroke:#000000;stroke-width:0;stroke-linecap:butt;stroke-linejoin:miter;stroke-miterlimit:4;stroke-dasharray:none;stroke-opacity:1" />
    </g>
    <g
       id="g861">
      <path
         inkscape:connector-curvature="0"
         id="path827"
         d="m 82.814582,95.321352 c 0,0 1.521354,-2.447396 3.241146,-1.12448 1.719792,1.322917 -0.132292,3.307292 -0.132292,3.307292 0,0 -2.315104,1.124479 -2.778125,-0.463021 -0.46302,-1.5875 -0.330729,-1.719791 -0.330729,-1.719791 z"
         style="fill:#000000;fill-opacity:1;stroke:#000000;stroke-width:0.26458332px;stroke-linecap:butt;stroke-linejoin:miter;stroke-opacity:1" />
      <path
         inkscape:connector-curvature="0"
         id="path851"
         d="m 82.672729,95.599045 0.019,0.138856 0.01754,0.100851 0.02193,0.106699 0.02777,0.141779 0.04239,0.181243 0.0307,0.130085 0.147627,0.545187 0.06577,0.222168 0.03946,0.09793 0.04823,0.102314 0.09208,0.149085 0.07016,0.08624 0.06431,0.07016 0.08624,0.07162 0.08478,0.05993 0.076,0.04385 0.08477,0.04823 0.121315,0.04239 0.1447,0.04531 0.184166,0.02777 0.154932,0.01024 0.171011,0.0029 0.172474,-0.01609 0.149085,-0.01754 0.185629,-0.03362 0.146161,-0.03215 0.206092,-0.05701 0.115466,-0.03654 0.152012,-0.0497 0.21632,-0.08331 0.192934,-0.08331 0.202841,-0.24276 0.115755,-0.163299 0.09922,-0.14986 0.09819,-0.163298 0.10232,-0.189135 0.08888,-0.19327 0.07235,-0.190169 0.05685,-0.183967 0.04134,-0.173633 0.02997,-0.216009 0.0072,-0.11472 V 95.52701 l -0.0072,-0.129194 -0.02479,-0.179832 -0.02997,-0.117824 -0.05478,-0.165365 -0.07545,-0.167431 -0.08888,-0.151929 -0.139525,-0.182933 -0.128159,-0.137459 -0.141592,-0.130225 -0.179834,-0.138493 -0.09784,-0.05649 -0.11507,-0.07374 -0.148828,-0.07545 -0.04961,-0.02066 0.319361,0.02479 0.02687,-0.0011 0.0155,-0.0021 0.0217,-0.0052 h 0.02479 l 0.03411,-0.0031 h 0.01963 l 0.02687,0.0062 0.03307,0.0093 0.02479,0.0031 0.02479,0.01344 0.0031,-0.0052 0.03721,0.01447 0.02585,0.01654 0.02997,0.03928 0.01344,0.0186 0.01757,0.02273 0.06407,0.07441 0.02923,0.04677 0.0088,0.0497 0.0088,0.03215 -0.0029,0.04677 v 0.02339 l 0.0029,0.0029 0.02923,0.01169 c 0,0 0.02045,0.0263 0.03216,0.02923 0.01169,0.0029 0.05554,0.0117 0.05554,0.0117 l 0.0263,0.02045 0.04093,0.038 0.04385,0.03216 0.04385,0.04093 0.02339,0.05554 0.06933,0.09396 0.09199,0.10025 0.06615,0.03927 0.0083,0.07441 0.04754,0.111622 0.07441,0.08268 0.08062,0.101285 0.07235,0.09302 0.09302,0.101285 0.06615,0.08475 0.06821,0.05994 0.08682,0.03307 0.03928,0.01035 -0.04754,0.01654 -0.02273,0.02273 -0.0186,0.03307 -0.09922,0.119888 -0.05994,0.06925 -0.03204,0.06408 -0.03927,0.06615 -0.02479,0.05374 -0.02791,0.06924 -0.03204,0.06201 -0.0072,0.09302 0.0031,0.161232 0.0011,0.09302 -0.0062,0.09922 0.0083,0.08682 0.0341,0.115755 0.04134,0.128159 0.02894,0.06201 0.04651,0.08992 0.03928,0.06098 0.01241,0.02273 -0.0021,0.02273 -0.02997,0.01757 -0.04444,0.06615 -0.04341,0.04651 -0.07441,0.06614 -0.03204,0.03824 -0.06821,0.07752 -0.04857,0.05684 -0.05168,0.04134 -0.04444,0.02687 0.04547,0.08888 0.02585,0.07338 0.03204,0.08268 0.02376,0.08475 -0.0031,0.04857 h -0.19327 l -0.126093,-0.0217 -0.128156,-0.0093 -0.173633,-0.01035 -0.09405,0.0031 -0.137459,-0.0041 -0.120923,0.01757 -0.09302,-0.0021 -0.136427,0.0072 -0.09302,0.02066 -0.100253,0.03204 -0.109553,0.03617 -0.06201,0.04754 -0.06718,0.05374 -0.08475,0.07855 -0.08682,0.07235 -0.07338,0.06511 -0.04341,0.06098 -0.031,0.05581 -0.05995,0.06511 -0.0217,0.04444 -0.08061,0.09922 -0.06615,0.08992 -0.03204,0.05168 -0.06821,0.09095 -0.09405,0.139525 -0.04341,0.07441 -0.06718,0.09508 -0.06098,0.08889 c 0,0 -0.06305,0.06098 -0.06511,0.06511 -0.0021,0.0041 -0.07441,0.109553 -0.07441,0.109553 l -0.04548,0.04444 -0.02894,0.01035 -0.04238,-0.07028 -0.02997,-0.102317 -0.03824,-0.07338 -0.07028,-0.115755 -0.102319,-0.148829 -0.114724,-0.08578 -0.05684,-0.03721 -0.04858,-0.03514 -0.05684,-0.02273 -0.08992,-0.04858 -0.05891,-0.02376 -0.08578,-0.02479 -0.08371,-0.02585 -0.08888,-0.0062 -0.01138,-0.01757 -0.11162,-0.0011 -0.109556,0.0083 -0.09405,-0.01654 -0.03617,-0.04651 -0.06098,-0.01344 -0.05375,-0.02582 -0.0155,-0.05375 -0.06305,-0.05064 h -0.02379 l -0.03514,-0.05891 -0.09405,-0.136427 -0.04547,-0.05581 -0.03204,-0.04754 -0.06821,-0.147796 c 0,0 -0.04961,-0.08268 -0.05168,-0.09198 -0.0021,-0.0093 -0.01963,-0.08992 -0.01963,-0.09405 0,-0.0041 -0.07235,-0.121957 -0.07235,-0.121957 l -0.03204,-0.112654 -0.03307,-0.07752 c 0,0 -0.0052,-0.02894 0.0011,-0.03307 0.0062,-0.0041 -0.140459,-0.524208 -0.140459,-0.524208 v -0.24887 l 0.09292,-0.210841 0.05374,-0.04547 0.04548,0.173633 v 0.103351 l 0.02894,0.136427 0.0083,0.06615 0.02479,0.11162 0.06201,0.103354 0.05374,0.132292 0.09095,0.173633 0.177769,0.148828 0.136424,0.09922 0.177768,0.04547 c 0,0 0.04134,-0.0083 0.03307,-0.02894 -0.0083,-0.02066 -0.152963,-0.256315 -0.152963,-0.256315 l -0.07855,-0.243914 -0.04548,-0.169498 -0.04547,-0.194304 -0.04548,-0.14056 -0.03307,-0.148828 -0.03307,-0.177766 -0.02894,-0.264583 v -0.14056 l -0.0084,-0.06058 -0.0073,-0.05554 -0.0029,-0.04239 -0.0029,-0.05262 v -0.05116 z"
         style="fill:#181818;fill-opacity:1;stroke:#d45757;stroke-width:0;stroke-linecap:butt;stroke-linejoin:miter;stroke-miterlimit:4;stroke-dasharray:none;stroke-opacity:1" />
    </g>
    <g
       id="g907"
       transform="matrix(0.60351139,0.97690509,-0.97690509,0.60351139,113.05006,-37.381773)">
      <path
         style="fill:#000000;fill-opacity:1;stroke:#000000;stroke-width:0.26458332px;stroke-linecap:butt;stroke-linejoin:miter;stroke-opacity:1"
         d="m 81.111327,76.436716 c 0,0 1.570964,0.727605 2.860808,-2.794661 -0.248046,-0.975649 -1.587499,0.181903 -1.587499,0.181903 0,0 -0.529167,0.28112 -1.041797,1.405599 -0.51263,1.124479 -0.231512,1.207159 -0.231512,1.207159 z"
         id="path867"
         inkscape:connector-curvature="0" />
      <g
         id="g902">
        <path
           sodipodi:nodetypes="csccccccccccccccccccccccccccccccccccccccccccccccccccccccccccccccccccccccccssccccccccccccccccccccccccsccccccccccccccccccccccccccccccccccccccccccccccccccccccccccccccccccccccccccc"
           inkscape:connector-curvature="0"
           id="path869"
           d="m 80.997478,76.523046 c 0,0 0.281122,0.201413 0.325582,0.340873 0.04498,0.141083 -0.0694,0.438781 -0.0694,0.438781 l -0.532533,0.702588 0.02339,0.07308 0.07016,0.01169 0.07016,-0.01462 0.06139,-0.03216 0.09062,-0.09939 0.181242,-0.222168 0.09647,-0.122777 0.09062,-0.111084 0.119854,-0.04677 0.128623,-0.06431 0.0877,-0.076 0.03508,-0.09062 -0.01462,-0.128623 -0.05847,-0.114007 0.0058,-0.102315 0.03508,-0.05846 0.05262,-0.01169 0.05445,0.08504 0.03033,0.06112 0.03508,0.076 0.02046,0.04093 0.02923,0.04677 0.02631,0.06431 0.01754,0.02631 0.02046,0.04385 c 0,0 0.03508,0.02339 0.038,0.03508 0.0029,0.01169 0.03216,0.04385 0.03216,0.04385 l 0.04385,0.04969 0.038,0.01754 0.03962,0.01028 0.06855,0.0043 0.01754,-0.02046 -0.04969,-0.05846 -0.07016,-0.09647 -0.0088,-0.06724 0.0088,-0.08477 0.04969,-0.114007 0.01754,-0.05262 0.02631,-0.076 0.02046,-0.05846 0.0029,-0.06431 0.01709,-0.142484 -0.01654,-0.08268 -0.03307,-0.04134 0.03721,-0.03307 0.03721,-0.02894 0.09508,-0.02067 h 0.103353 l 0.09922,0.0083 0.07855,0.02894 c 0,0 0.06615,0.04134 0.08682,0.04547 0.02067,0.0041 0.04547,0.02894 0.07028,0.03721 0.0248,0.0083 0.107487,0.04961 0.107487,0.04961 l 0.04961,0.0248 0.04548,0.06201 0.05788,0.04547 0.07441,0.08268 0.04134,0.05788 0.04961,0.07028 0.02894,0.07441 0.165365,-0.04547 0.107487,-0.03307 0.09095,-0.04134 0.103353,-0.03721 0.09508,-0.05374 0.09508,-0.04548 0.05788,-0.04134 0.04961,-0.04134 0.04134,-0.03307 -0.0124,-0.01654 c 0,0 -0.05374,-0.0083 -0.08268,-0.0083 -0.02894,0 -0.124024,0.0124 -0.14056,0.0124 -0.01654,0 -0.115755,-0.04548 -0.115755,-0.04548 l -0.128158,-0.07855 -0.07441,-0.06615 -0.09095,-0.07441 -0.07855,-0.09922 -0.128157,-0.136426 -0.05788,-0.06615 -0.08268,-0.111621 -0.04961,-0.119889 -0.0041,-0.08682 0.16123,-0.206706 0.07855,-0.06201 0.09922,-0.07855 0.132292,-0.04134 0.144694,-0.02894 0.14056,-0.0124 0.132291,0.02894 0.07855,0.04961 0.05374,0.05374 0.06201,0.0083 v -0.04134 l 0.05374,-0.03307 0.144694,-0.0041 0.103353,0.06201 c 0,0 0.05788,0.04134 0.08682,0.05374 0.02894,0.0124 0.124024,0.07028 0.124024,0.07028 l 0.14056,0.09922 0.07028,0.04547 0.115755,0.115755 0.107487,0.09095 0.239778,0.239779 -0.39274,-0.578777 -0.194304,-0.330729 -0.08268,-0.235644 0.0083,-0.14056 0.0041,-0.04547 0.02481,-0.04134 0.06201,-0.03721 0.07028,-0.02067 0.09508,-0.0124 0.09508,-0.0124 0.09508,-0.0083 0.144694,-0.02894 -0.607714,-0.206706 -0.124024,-0.115755 -0.0248,-0.04547 -0.01654,-0.124023 0.0041,-0.07028 0.02481,-0.09095 0.05374,-0.09508 0.07028,-0.103352 0.08682,-0.06615 0.157096,-0.06201 0.124024,-0.06615 0.942578,-0.347265 0.152962,-0.111622 0.02067,-0.05374 -0.07441,0.02481 -0.06201,0.04134 -0.14056,0.03307 c 0,0 -0.115755,0.02894 -0.136426,0.03307 -0.02067,0.0041 -0.300555,0.05181 -0.300555,0.05181 l -0.359561,0.04531 -0.324482,0.0015 h -0.299634 l -0.08916,0.01462 -0.115468,0.09208 -0.371255,-0.135931 0.09062,0.09501 0.04969,0.08185 0.04677,0.10816 0.038,0.125701 -0.09208,0.247015 -0.05366,0.141075 -0.14366,0.336931 -0.179834,0.374137 -0.301791,0.537435 -0.137459,0.204639 -0.10542,0.144694 -0.223242,0.267684 -0.239779,0.235644 -0.189135,0.148828 -0.15503,0.101286 -0.14366,0.07855 -0.149862,0.06097 -0.178801,0.05788 -0.136425,0.02894 -0.06304,3.2e-5 -0.11989,0.01864 -0.09715,-0.0031 -0.09198,-0.0062 -0.09198,-0.01654 -0.06408,-0.0155 0.03307,0.02481 0.02687,0.02687 0.05684,0.05684 0.03307,0.04031 0.03101,0.04444 0.02067,0.05478 -0.04547,-0.21601"
           style="fill:#2f2f2f;fill-opacity:1;stroke:#000000;stroke-width:0;stroke-linecap:butt;stroke-linejoin:miter;stroke-miterlimit:4;stroke-dasharray:none;stroke-opacity:1" />
      </g>
    </g>
    <g
       id="g893">
      <ellipse
         inkscape:transform-center-y="0.37417734"
         inkscape:transform-center-x="0.280633"
         transform="matrix(0.45313267,0.89144309,-0.99985311,0.01713919,0,0)"
         ry="0.7213304"
         rx="2.0521595"
         cy="-17.617277"
         cx="123.28321"
         id="path865"
         style="opacity:1;fill:#030303;fill-opacity:1;stroke:#000000;stroke-width:0;stroke-miterlimit:4;stroke-dasharray:none;stroke-dashoffset:0;stroke-opacity:1" />
      <path
         sodipodi:nodetypes="csssccccccccccccccccccccccccccccccccccccccccccccccscccccccccccccccccccccccccccccccccscccccccccccccccccccccccccccccccccccccccccccccccccccccccccccsccccccccccccccccccccccc"
         inkscape:connector-curvature="0"
         id="path889"
         d="m 73.40593,108.37063 c 0.0063,0.0377 -0.350968,-0.37732 -0.55629,-0.50077 -0.05267,-0.0317 -0.108622,-0.0571 -0.163405,-0.0758 -0.05478,-0.0187 -0.109647,-0.0356 -0.159752,-0.0239 -0.100209,0.0233 -0.177248,0.10002 -0.225476,0.31851 l -6e-6,-4e-5 0.01753,-0.34345 0.09939,-0.23678 0.04385,-0.15786 0.0029,-0.2397 -0.01754,-0.26602 0.0088,-0.0994 0.05554,0.17832 0.105238,0.19585 0.09062,0.11109 0.175398,0.15201 0.06431,0.0204 0.05109,-0.005 0.01241,-0.0269 0.01241,-0.0372 0.01654,-0.0424 0.02066,-0.0434 0.01241,-0.0145 0.0072,0.0889 0.01241,0.0196 0.01344,0.0176 0.01963,0.0279 0.02376,0.0186 0.21704,0.23461 0.210841,0.21084 0.334812,0.2529 0.298172,0.19294 0.0026,0.0255 -0.01551,0.0114 -0.02687,-0.006 -0.02687,0.0114 -0.0155,0.0217 -0.02997,0.0238 -0.02066,0.0434 -0.0072,0.0475 0.0083,0.0434 0.01757,0.0806 0.02273,0.0682 0.04238,0.0765 0.04651,0.0589 0.04548,0.0413 0.04547,0.0289 0.06615,0.061 0.08268,0.0434 0.07855,0.032 c 0,0 0.08371,0.008 0.08785,0.008 0.0041,0 0.08165,-0.0134 0.08165,-0.0134 l 0.05374,-0.0124 0.02273,0.0703 0.04961,0.10025 0.02894,0.11059 0.03927,0.0889 0.0217,0.092 0.02479,0.0672 0.0062,0.0713 0.02273,0.0548 0.0093,0.0703 -0.0062,0.0362 -0.06201,0.0248 -0.03721,0.0382 -0.0093,0.0796 0.0093,0.15502 0.04031,0.10026 0.04754,0.0982 0.0186,0.0682 0.03514,0.0827 0.09198,0.16123 0.08888,0.12712 0.06821,0.0444 0.09095,0.032 0.08165,-0.0227 0.0072,-0.0217 0.01654,0.032 0.0011,0.0568 -0.04237,0.0579 -0.04238,0.0289 -0.03824,0.0258 -0.08578,0.006 -0.112655,0.004 c 0,0 -0.09922,-0.0114 -0.103351,-0.0114 -0.0041,0 -0.07028,0.004 -0.08165,0.007 -0.01138,0.003 -0.05271,0.0444 -0.05271,0.0444 l 0.0041,0.062 0.0072,0.0186 0.0186,0.0145 0.03617,0.0145 0.02894,0.008 0.02894,0.006 0.03514,0.005 h 0.03411 l 0.04651,0.006 0.04341,0.009 0.02273,0.0145 0.04547,0.0248 c 0,0 0.01344,0.004 0.0186,0.0145 0.0052,0.0104 0.03307,0.0372 0.03307,0.0372 l 0.01757,0.03 0.0093,0.0186 0.0093,0.0279 0.0011,0.0289 v 0.0331 l 0.01447,0.03 c 0,0 0.0052,0.0165 0.0062,0.0227 0.0011,0.006 0.01138,0.0486 0.01138,0.0486 l 0.0041,0.0196 -0.0062,0.0372 -0.02066,0.0403 -0.01447,0.0341 -0.0062,-0.0207 -0.01447,-0.0145 -0.02687,-0.0145 c 0,0 -0.01241,-0.002 -0.0217,-0.004 -0.0093,-0.002 -0.02997,-0.004 -0.02997,-0.004 l -0.04031,-0.002 -0.02582,-0.003 -0.0217,-0.0207 -0.02479,-0.0217 -0.02066,-0.008 -0.02376,-0.001 -0.02894,0.001 -0.03514,0.001 -0.02479,-0.004 -0.03204,0.002 -0.03101,0.008 -0.03307,0.0196 -0.01654,0.0227 -0.01447,0.0155 -0.04444,-0.001 -0.04237,-0.006 c 0,0 -0.02379,-0.003 -0.03204,-0.002 -0.0083,10e-4 -0.01654,0.007 -0.0217,0.0134 -0.0052,0.006 -0.03617,0.0196 -0.04134,0.0217 -0.0052,0.002 -0.01963,0.007 -0.02791,0.0114 -0.0083,0.004 -0.04961,0.0279 -0.04961,0.0279 l -0.0011,-0.0165 v -0.0165 l 0.01138,-0.0134 0.01035,-0.0134 -0.05478,-0.009 c 0,0 -0.06718,-0.001 -0.07132,-0.001 -0.0041,0 -0.08371,-0.007 -0.08371,-0.007 0,0 -0.08062,-0.0134 -0.08785,-0.0176 -0.0072,-0.004 -0.06201,-0.032 -0.06718,-0.0331 -0.0052,-0.001 -0.07235,-0.0331 -0.07235,-0.0331 l -0.03617,-0.0207 -0.105418,-0.0558 -0.04134,-0.0527 c 0,0 -0.03411,-0.0424 -0.03721,-0.0465 -0.0031,-0.004 -0.03411,-0.0362 -0.03824,-0.0403 -0.0041,-0.004 -0.04961,-0.0682 -0.04961,-0.0682 l 0.0011,-0.001 0.04961,0.0413 0.03617,0.03 0.031,0.0227 0.02997,0.0227 0.04238,0.031 0.138493,0.0785 0.09508,0.0341 c 0,0 0.238747,0.094 0.32453,-0.15193 0.08578,-0.24597 -0.0083,-0.555 -0.0083,-0.555 0,0 -0.08811,-0.34288 -0.129034,-0.45397 -0.04093,-0.11108 -0.384411,-0.90913 -0.482338,-1.01437 l -0.599359,-0.86456"
         style="fill:#2f2f2f;fill-opacity:1;stroke:none;stroke-width:0.005;stroke-linecap:butt;stroke-linejoin:miter;stroke-miterlimit:4;stroke-dasharray:none;stroke-opacity:1" />
    </g>
    <g
       id="g899"
       transform="matrix(0.51689213,0.73825751,0.73825751,-0.51689213,-37.912776,90.191694)">
      <path
         style="fill:#000000;fill-opacity:1;stroke:#000000;stroke-width:0.26458332px;stroke-linecap:butt;stroke-linejoin:miter;stroke-opacity:1"
         d="m 82.814582,95.321352 c 0,0 1.521354,-2.447396 3.241146,-1.12448 1.719792,1.322917 -0.132292,3.307292 -0.132292,3.307292 0,0 -2.315104,1.124479 -2.778125,-0.463021 -0.46302,-1.5875 -0.330729,-1.719791 -0.330729,-1.719791 z"
         id="path895"
         inkscape:connector-curvature="0" />
      <path
         style="fill:#181818;fill-opacity:1;stroke:#d45757;stroke-width:0;stroke-linecap:butt;stroke-linejoin:miter;stroke-miterlimit:4;stroke-dasharray:none;stroke-opacity:1"
         d="m 82.672729,95.599045 0.019,0.138856 0.01754,0.100851 0.02193,0.106699 0.02777,0.141779 0.04239,0.181243 0.0307,0.130085 0.147627,0.545187 0.06577,0.222168 0.03946,0.09793 0.04823,0.102314 0.09208,0.149085 0.07016,0.08624 0.06431,0.07016 0.08624,0.07162 0.08478,0.05993 0.076,0.04385 0.08477,0.04823 0.121315,0.04239 0.1447,0.04531 0.184166,0.02777 0.154932,0.01024 0.171011,0.0029 0.172474,-0.01609 0.149085,-0.01754 0.185629,-0.03362 0.146161,-0.03215 0.206092,-0.05701 0.115466,-0.03654 0.152012,-0.0497 0.21632,-0.08331 0.192934,-0.08331 0.202841,-0.24276 0.115755,-0.163299 0.09922,-0.14986 0.09819,-0.163298 0.10232,-0.189135 0.08888,-0.19327 0.07235,-0.190169 0.05685,-0.183967 0.04134,-0.173633 0.02997,-0.216009 0.0072,-0.11472 V 95.52701 l -0.0072,-0.129194 -0.02479,-0.179832 -0.02997,-0.117824 -0.05478,-0.165365 -0.07545,-0.167431 -0.08888,-0.151929 -0.139525,-0.182933 -0.128159,-0.137459 -0.141592,-0.130225 -0.179834,-0.138493 -0.09784,-0.05649 -0.11507,-0.07374 -0.148828,-0.07545 -0.04961,-0.02066 0.319361,0.02479 0.02687,-0.0011 0.0155,-0.0021 0.0217,-0.0052 h 0.02479 l 0.03411,-0.0031 h 0.01963 l 0.02687,0.0062 0.03307,0.0093 0.02479,0.0031 0.02479,0.01344 0.0031,-0.0052 0.03721,0.01447 0.02585,0.01654 0.02997,0.03928 0.01344,0.0186 0.01757,0.02273 0.06407,0.07441 0.02923,0.04677 0.0088,0.0497 0.0088,0.03215 -0.0029,0.04677 v 0.02339 l 0.0029,0.0029 0.02923,0.01169 c 0,0 0.02045,0.0263 0.03216,0.02923 0.01169,0.0029 0.05554,0.0117 0.05554,0.0117 l 0.0263,0.02045 0.04093,0.038 0.04385,0.03216 0.04385,0.04093 0.02339,0.05554 0.06933,0.09396 0.09199,0.10025 0.06615,0.03927 0.0083,0.07441 0.04754,0.111622 0.07441,0.08268 0.08062,0.101285 0.07235,0.09302 0.09302,0.101285 0.06615,0.08475 0.06821,0.05994 0.08682,0.03307 0.03928,0.01035 -0.04754,0.01654 -0.02273,0.02273 -0.0186,0.03307 -0.09922,0.119888 -0.05994,0.06925 -0.03204,0.06408 -0.03927,0.06615 -0.02479,0.05374 -0.02791,0.06924 -0.03204,0.06201 -0.0072,0.09302 0.0031,0.161232 0.0011,0.09302 -0.0062,0.09922 0.0083,0.08682 0.0341,0.115755 0.04134,0.128159 0.02894,0.06201 0.04651,0.08992 0.03928,0.06098 0.01241,0.02273 -0.0021,0.02273 -0.02997,0.01757 -0.04444,0.06615 -0.04341,0.04651 -0.07441,0.06614 -0.03204,0.03824 -0.06821,0.07752 -0.04857,0.05684 -0.05168,0.04134 -0.04444,0.02687 0.04547,0.08888 0.02585,0.07338 0.03204,0.08268 0.02376,0.08475 -0.0031,0.04857 h -0.19327 l -0.126093,-0.0217 -0.128156,-0.0093 -0.173633,-0.01035 -0.09405,0.0031 -0.137459,-0.0041 -0.120923,0.01757 -0.09302,-0.0021 -0.136427,0.0072 -0.09302,0.02066 -0.100253,0.03204 -0.109553,0.03617 -0.06201,0.04754 -0.06718,0.05374 -0.08475,0.07855 -0.08682,0.07235 -0.07338,0.06511 -0.04341,0.06098 -0.031,0.05581 -0.05995,0.06511 -0.0217,0.04444 -0.08061,0.09922 -0.06615,0.08992 -0.03204,0.05168 -0.06821,0.09095 -0.09405,0.139525 -0.04341,0.07441 -0.06718,0.09508 -0.06098,0.08889 c 0,0 -0.06305,0.06098 -0.06511,0.06511 -0.0021,0.0041 -0.07441,0.109553 -0.07441,0.109553 l -0.04548,0.04444 -0.02894,0.01035 -0.04238,-0.07028 -0.02997,-0.102317 -0.03824,-0.07338 -0.07028,-0.115755 -0.102319,-0.148829 -0.114724,-0.08578 -0.05684,-0.03721 -0.04858,-0.03514 -0.05684,-0.02273 -0.08992,-0.04858 -0.05891,-0.02376 -0.08578,-0.02479 -0.08371,-0.02585 -0.08888,-0.0062 -0.01138,-0.01757 -0.11162,-0.0011 -0.109556,0.0083 -0.09405,-0.01654 -0.03617,-0.04651 -0.06098,-0.01344 -0.05375,-0.02582 -0.0155,-0.05375 -0.06305,-0.05064 h -0.02379 l -0.03514,-0.05891 -0.09405,-0.136427 -0.04547,-0.05581 -0.03204,-0.04754 -0.06821,-0.147796 c 0,0 -0.04961,-0.08268 -0.05168,-0.09198 -0.0021,-0.0093 -0.01963,-0.08992 -0.01963,-0.09405 0,-0.0041 -0.07235,-0.121957 -0.07235,-0.121957 l -0.03204,-0.112654 -0.03307,-0.07752 c 0,0 -0.0052,-0.02894 0.0011,-0.03307 0.0062,-0.0041 -0.140459,-0.524208 -0.140459,-0.524208 v -0.24887 l 0.09292,-0.210841 0.05374,-0.04547 0.04548,0.173633 v 0.103351 l 0.02894,0.136427 0.0083,0.06615 0.02479,0.11162 0.06201,0.103354 0.05374,0.132292 0.09095,0.173633 0.177769,0.148828 0.136424,0.09922 0.177768,0.04547 c 0,0 0.04134,-0.0083 0.03307,-0.02894 -0.0083,-0.02066 -0.152963,-0.256315 -0.152963,-0.256315 l -0.07855,-0.243914 -0.04548,-0.169498 -0.04547,-0.194304 -0.04548,-0.14056 -0.03307,-0.148828 -0.03307,-0.177766 -0.02894,-0.264583 v -0.14056 l -0.0084,-0.06058 -0.0073,-0.05554 -0.0029,-0.04239 -0.0029,-0.05262 v -0.05116 z"
         id="path897"
         inkscape:connector-curvature="0" />
    </g>
    <path
       style="opacity:0;fill:#2f2f2f;fill-opacity:1;stroke:#000000;stroke-width:0.26458332px;stroke-linecap:butt;stroke-linejoin:miter;stroke-opacity:1"
       d="m 121.57604,85.201039 8.86354,9.458854 c 0,0 -15.41198,3.373438 -15.21354,2.976563 0.19844,-0.396875 6.35,-12.435417 6.35,-12.435417 z"
       id="path909"
       inkscape:connector-curvature="0" />
    <path
       style="fill:#000000;fill-opacity:1;stroke:none;stroke-width:0.065;stroke-linecap:butt;stroke-linejoin:miter;stroke-miterlimit:4;stroke-dasharray:none;stroke-opacity:1"
       d="m 88.552733,103.98646 0.363802,-0.39688 0.429948,-0.14883 0.385919,-0.11845 0.321559,-0.0585 0.327406,-0.0175 0.251399,-0.0234 h 0.21632 l 0.251402,0.0117 0.239707,0.0409 0.268941,0.0819 0.175395,0.11693 0.175395,0.15201 0.199822,0.21338 0.179834,0.26458 0.124024,0.26872 0.05994,0.16537 0.07855,0.30592 0.0186,0.27905 0.01035,0.21911 -0.031,0.1695 -0.03721,0.26045 -0.03721,0.12816 -0.03514,0.14676 -0.05374,0.12815 -0.06201,0.12609 -0.169497,0.29353 -0.107487,0.17983 -0.124023,0.14883 -0.14056,0.13436 -0.167431,0.13436 -0.171567,0.0868 -0.206705,0.0724 -0.223243,0.0662 -0.159162,0.0889 -0.1695,0.0682 -0.248047,0.0682 -0.260448,0.0496 -0.221176,0.06 -0.243914,0.0413 -0.214974,-0.004 -0.219107,-0.0165 -0.221175,-0.0455 -0.150895,-0.0537 -0.128159,-0.0662 -0.171564,-0.0889 -0.130225,-0.13022 -0.196371,-0.21291 -0.07648,-0.19017 -0.05788,-0.28112 -0.03721,-0.14883 c 0,0 -0.03514,-0.20464 -0.03721,-0.22531 -0.0021,-0.0207 -0.02687,-0.1695 -0.02687,-0.1695 l -0.03721,-0.25011 -0.04165,-0.26459 -0.01609,-0.14909 0.01609,-0.1257 0.0058,-0.15786 0.019,-0.10231 0.01754,-0.16663 0.02923,-0.10085 0.02484,-0.11108 0.02339,-0.10963 0.0497,-0.11985 0.0687,-0.10816 0.0687,-0.1447 0.100851,-0.13155 0.05993,-0.0731 z"
       id="path923"
       inkscape:connector-curvature="0" />
    <path
       style="fill:#000006;fill-opacity:1;stroke:none;stroke-width:0.26458332px;stroke-linecap:butt;stroke-linejoin:miter;stroke-opacity:1"
       d="m 81.607421,111.56015 0.429948,-0.44648 0.51263,-0.19844 0.292277,0.0543 0.14324,0.0585 0.146164,0.10231 0.192934,0.13155 0.154935,0.1637 0.154932,0.19878 0.146164,0.23678 0.0263,0.23094 -0.0263,0.26309 -0.05847,0.14324 -0.05554,0.10232 -0.102315,0.10524 -0.111082,0.114 -0.184166,0.1257 -0.201705,0.0848 -0.23386,0.0731 -0.33033,-0.0205 -0.230936,-0.0205 -0.298172,-0.0468 -0.198782,-0.0672 -0.19586,-0.17832 -0.160779,-0.23094 -0.04677,-0.24555 0.0029,-0.20463 -0.0117,-0.22802 0.03216,-0.1257 0.125698,-0.14908 0.076,-0.0146 z"
       id="path925"
       inkscape:connector-curvature="0" />
    <path
       style="fill:#000006;fill-opacity:1;stroke:none;stroke-width:0.26458332px;stroke-linecap:butt;stroke-linejoin:miter;stroke-opacity:1"
       d="m 69.105859,101.20833 0.07602,-0.27726 0.04093,-0.27478 0.11693,-0.19294 0.128624,-0.0702 0.239708,0.11693 0.222168,0.39172 0.11693,0.37418 0.06431,0.4151 0.02923,0.40341 -0.02339,0.53203 -0.0117,0.32156 0.03508,0.40926 0.02339,0.74251 -0.05262,0.55542 -0.0058,0.49695 -0.09354,0.39756 -0.146164,0.25725 -0.245555,-0.21047 -0.192934,-0.4268 -0.251402,-1.02314 -0.169547,-1.30378 0.02339,-0.61388 -0.01754,-0.4151 0.03508,-0.40926 z"
       id="path927"
       inkscape:connector-curvature="0" />
    <path
       style="fill:#000006;fill-opacity:1;stroke:none;stroke-width:0.26458332px;stroke-linecap:butt;stroke-linejoin:miter;stroke-opacity:1"
       d="m 80.658601,86.408314 -0.04677,0.05993 -0.0088,0.07308 0.0073,0.04677 0.08916,0.05408 0.09501,0.01463 0.09793,-0.0044 0.197319,-0.0029 0.176858,0.0016 0.236783,-0.02484 0.323022,-0.04093 0.26017,-0.06139 0.185627,-0.04677 0.213397,-0.076 0.18855,-0.04239 0.103777,-0.05116 0.320096,-0.09939 0.347869,-0.156396 0.181242,-0.09062 0.195858,-0.108159 0.08624,-0.09501 0.05993,-0.07308 0.019,-0.05993 -0.01169,-0.09793 -0.03508,-0.114009 -0.03362,-0.03508 -0.57296,0.0044 -0.352253,0.07016 -0.191474,0.03362 -0.217781,0.07016 -0.420949,0.130085 -0.209013,0.0687 -0.406334,0.122777 -0.11547,0.0687 -0.429717,0.156396 -0.249939,0.175395 z"
       id="path929"
       inkscape:connector-curvature="0" />
    <ellipse
       style="opacity:1;fill:#000000;fill-opacity:1;stroke:none;stroke-width:0.09453247;stroke-miterlimit:4;stroke-dasharray:none;stroke-dashoffset:0;stroke-opacity:1"
       id="path931"
       transform="rotate(-44.264359)"
       ry="1.1634055"
       rx="0.30149096"
       cy="133.58798"
       cx="-26.351917" />
    <path
       style="fill:#070000;fill-opacity:1;stroke:none;stroke-width:0.26458332px;stroke-linecap:butt;stroke-linejoin:miter;stroke-opacity:1"
       d="m 78.249835,117.31302 0.09355,-0.19878 0.491107,-0.0351 h 0.514493 l 0.5028,0.15201 0.596345,0.15203 0.865285,0.25725 0.584653,0.17541 0.45603,0.24556 0.631423,0.19878 0.795128,0.54957 0.04473,0.0554 -0.221176,0.1882 -0.478369,0.0955 -0.402373,0.0113 -3.840417,-1.24992 z"
       id="path935"
       inkscape:connector-curvature="0" />
    <path
       style="fill:#070000;fill-opacity:1;stroke:none;stroke-width:0.26458332px;stroke-linecap:butt;stroke-linejoin:miter;stroke-opacity:1"
       d="m 97.134097,89.162026 0.02339,0.344946 0.181242,0.339097 0.257247,0.274786 0.393358,0.479774 0.446479,0.644922 0.347271,0.380339 0.730552,0.500322 0.496954,0.368331 0.49228,0.305435 0.23978,0.07441 0.091,-0.09095 -0.1406,-0.421679 -0.15627,-0.393404 -0.36249,-0.561266 -0.321556,-0.391716 -0.47357,-0.514495 -0.456028,-0.426794 -0.385871,-0.350793 -0.286477,-0.23386 -0.280633,-0.210476 -0.18709,-0.09939 -0.198781,-0.06431 -0.18709,-0.07016 -0.146164,-0.02339 -0.076,0.05262 z"
       id="path937"
       inkscape:connector-curvature="0" />
    <path
       style="fill:#070000;fill-opacity:1;stroke:#000000;stroke-width:0.26458332px;stroke-linecap:butt;stroke-linejoin:miter;stroke-opacity:1"
       d="m 101.26566,110.63535 -0.12863,-0.0555 -0.29771,0.2775 -0.26458,0.36381 -0.26207,0.37013 -0.28363,0.72954 -0.248401,0.56255 -0.222178,0.7045 -0.04206,0.27911 -0.01344,0.20323 0.0555,0.0585 v 0 l 0.222528,-0.0798 0.330721,-0.32246 0.23978,-0.28112 0.21498,-0.31419 0.3638,-0.62012 0.23978,-0.53744 0.0661,-0.16536 0.0827,-0.1571 -0.0331,-0.0413 0.0827,-0.30592 0.0827,-0.24805 -0.0248,-0.1819 -0.1517,-0.0778 z"
       id="path939"
       inkscape:connector-curvature="0" />
    <g
       id="g945"
       transform="matrix(-0.80403918,-0.97735375,-0.84634285,0.81667913,241.9121,98.696562)">
      <ellipse
         style="opacity:1;fill:#030303;fill-opacity:1;stroke:#000000;stroke-width:0;stroke-miterlimit:4;stroke-dasharray:none;stroke-dashoffset:0;stroke-opacity:1"
         id="ellipse941"
         cx="123.28321"
         cy="-17.617277"
         rx="2.0521595"
         ry="0.7213304"
         transform="matrix(0.45313267,0.89144309,-0.99985311,0.01713919,0,0)"
         inkscape:transform-center-x="0.280633"
         inkscape:transform-center-y="0.37417734" />
      <path
         style="fill:#2f2f2f;fill-opacity:1;stroke:none;stroke-width:0.005;stroke-linecap:butt;stroke-linejoin:miter;stroke-miterlimit:4;stroke-dasharray:none;stroke-opacity:1"
         d="m 73.40593,108.37063 c 0.0063,0.0377 -0.350968,-0.37732 -0.55629,-0.50077 -0.05267,-0.0317 -0.108622,-0.0571 -0.163405,-0.0758 -0.05478,-0.0187 -0.109647,-0.0356 -0.159752,-0.0239 -0.100209,0.0233 -0.177248,0.10002 -0.225476,0.31851 l -6e-6,-4e-5 0.01753,-0.34345 0.09939,-0.23678 0.04385,-0.15786 0.0029,-0.2397 -0.01754,-0.26602 0.0088,-0.0994 0.05554,0.17832 0.105238,0.19585 0.09062,0.11109 0.175398,0.15201 0.06431,0.0204 0.05109,-0.005 0.01241,-0.0269 0.01241,-0.0372 0.01654,-0.0424 0.02066,-0.0434 0.01241,-0.0145 0.0072,0.0889 0.01241,0.0196 0.01344,0.0176 0.01963,0.0279 0.02376,0.0186 0.21704,0.23461 0.210841,0.21084 0.334812,0.2529 0.298172,0.19294 0.0026,0.0255 -0.01551,0.0114 -0.02687,-0.006 -0.02687,0.0114 -0.0155,0.0217 -0.02997,0.0238 -0.02066,0.0434 -0.0072,0.0475 0.0083,0.0434 0.01757,0.0806 0.02273,0.0682 0.04238,0.0765 0.04651,0.0589 0.04548,0.0413 0.04547,0.0289 0.06615,0.061 0.08268,0.0434 0.07855,0.032 c 0,0 0.08371,0.008 0.08785,0.008 0.0041,0 0.08165,-0.0134 0.08165,-0.0134 l 0.05374,-0.0124 0.02273,0.0703 0.04961,0.10025 0.02894,0.11059 0.03927,0.0889 0.0217,0.092 0.02479,0.0672 0.0062,0.0713 0.02273,0.0548 0.0093,0.0703 -0.0062,0.0362 -0.06201,0.0248 -0.03721,0.0382 -0.0093,0.0796 0.0093,0.15502 0.04031,0.10026 0.04754,0.0982 0.0186,0.0682 0.03514,0.0827 0.09198,0.16123 0.08888,0.12712 0.06821,0.0444 0.09095,0.032 0.08165,-0.0227 0.0072,-0.0217 0.01654,0.032 0.0011,0.0568 -0.04237,0.0579 -0.04238,0.0289 -0.03824,0.0258 -0.08578,0.006 -0.112655,0.004 c 0,0 -0.09922,-0.0114 -0.103351,-0.0114 -0.0041,0 -0.07028,0.004 -0.08165,0.007 -0.01138,0.003 -0.05271,0.0444 -0.05271,0.0444 l 0.0041,0.062 0.0072,0.0186 0.0186,0.0145 0.03617,0.0145 0.02894,0.008 0.02894,0.006 0.03514,0.005 h 0.03411 l 0.04651,0.006 0.04341,0.009 0.02273,0.0145 0.04547,0.0248 c 0,0 0.01344,0.004 0.0186,0.0145 0.0052,0.0104 0.03307,0.0372 0.03307,0.0372 l 0.01757,0.03 0.0093,0.0186 0.0093,0.0279 0.0011,0.0289 v 0.0331 l 0.01447,0.03 c 0,0 0.0052,0.0165 0.0062,0.0227 0.0011,0.006 0.01138,0.0486 0.01138,0.0486 l 0.0041,0.0196 -0.0062,0.0372 -0.02066,0.0403 -0.01447,0.0341 -0.0062,-0.0207 -0.01447,-0.0145 -0.02687,-0.0145 c 0,0 -0.01241,-0.002 -0.0217,-0.004 -0.0093,-0.002 -0.02997,-0.004 -0.02997,-0.004 l -0.04031,-0.002 -0.02582,-0.003 -0.0217,-0.0207 -0.02479,-0.0217 -0.02066,-0.008 -0.02376,-0.001 -0.02894,0.001 -0.03514,0.001 -0.02479,-0.004 -0.03204,0.002 -0.03101,0.008 -0.03307,0.0196 -0.01654,0.0227 -0.01447,0.0155 -0.04444,-0.001 -0.04237,-0.006 c 0,0 -0.02379,-0.003 -0.03204,-0.002 -0.0083,10e-4 -0.01654,0.007 -0.0217,0.0134 -0.0052,0.006 -0.03617,0.0196 -0.04134,0.0217 -0.0052,0.002 -0.01963,0.007 -0.02791,0.0114 -0.0083,0.004 -0.04961,0.0279 -0.04961,0.0279 l -0.0011,-0.0165 v -0.0165 l 0.01138,-0.0134 0.01035,-0.0134 -0.05478,-0.009 c 0,0 -0.06718,-0.001 -0.07132,-0.001 -0.0041,0 -0.08371,-0.007 -0.08371,-0.007 0,0 -0.08062,-0.0134 -0.08785,-0.0176 -0.0072,-0.004 -0.06201,-0.032 -0.06718,-0.0331 -0.0052,-0.001 -0.07235,-0.0331 -0.07235,-0.0331 l -0.03617,-0.0207 -0.105418,-0.0558 -0.04134,-0.0527 c 0,0 -0.03411,-0.0424 -0.03721,-0.0465 -0.0031,-0.004 -0.03411,-0.0362 -0.03824,-0.0403 -0.0041,-0.004 -0.04961,-0.0682 -0.04961,-0.0682 l 0.0011,-0.001 0.04961,0.0413 0.03617,0.03 0.031,0.0227 0.02997,0.0227 0.04238,0.031 0.138493,0.0785 0.09508,0.0341 c 0,0 0.238747,0.094 0.32453,-0.15193 0.08578,-0.24597 -0.0083,-0.555 -0.0083,-0.555 0,0 -0.08811,-0.34288 -0.129034,-0.45397 -0.04093,-0.11108 -0.384411,-0.90913 -0.482338,-1.01437 l -0.599359,-0.86456"
         id="path943"
         inkscape:connector-curvature="0"
         sodipodi:nodetypes="csssccccccccccccccccccccccccccccccccccccccccccccccscccccccccccccccccccccccccccccccccscccccccccccccccccccccccccccccccccccccccccccccccccccccccccccsccccccccccccccccccccccc" />
    </g>
    <g
       id="g951"
       transform="matrix(-1.0676001,0.2513485,-0.2513485,-1.0676001,203.04365,188.20795)">
      <path
         style="fill:#000000;fill-opacity:1;stroke:#000000;stroke-width:0.26458332px;stroke-linecap:butt;stroke-linejoin:miter;stroke-opacity:1"
         d="m 73.901431,94.62682 c 0,0 1.570964,0.727605 2.860808,-2.794661 -0.248046,-0.975649 -1.587499,0.181903 -1.587499,0.181903 0,0 -0.529167,0.28112 -1.041797,1.405599 -0.51263,1.124479 -0.231512,1.207159 -0.231512,1.207159 z"
         id="path947"
         inkscape:connector-curvature="0" />
      <path
         style="fill:#2f2f2f;fill-opacity:1;stroke:#000000;stroke-width:0;stroke-linecap:butt;stroke-linejoin:miter;stroke-miterlimit:4;stroke-dasharray:none;stroke-opacity:1"
         d="m 73.787582,94.71315 c 0,0 0.281122,0.201413 0.325582,0.340873 0.04498,0.141083 -0.0694,0.438781 -0.0694,0.438781 l -0.532533,0.702588 0.02339,0.07308 0.07016,0.01169 0.07016,-0.01462 0.06139,-0.03216 0.09062,-0.09939 0.181242,-0.222168 0.09647,-0.122777 0.09062,-0.111084 0.119854,-0.04677 0.128623,-0.06431 0.0877,-0.076 0.03508,-0.09062 -0.01462,-0.128623 -0.05847,-0.114007 0.0058,-0.102315 0.03508,-0.05846 0.05262,-0.01169 0.05445,0.08504 0.03033,0.06112 0.03508,0.076 0.02046,0.04093 0.02923,0.04677 0.02631,0.06431 0.01754,0.02631 0.02046,0.04385 c 0,0 0.03508,0.02339 0.038,0.03508 0.0029,0.01169 0.03216,0.04385 0.03216,0.04385 l 0.04385,0.04969 0.038,0.01754 0.03962,0.01028 0.06855,0.0043 0.01754,-0.02046 -0.04969,-0.05846 -0.07016,-0.09647 -0.0088,-0.06724 0.0088,-0.08477 0.04969,-0.114007 0.01754,-0.05262 0.02631,-0.076 0.02046,-0.05846 0.0029,-0.06431 0.01709,-0.142484 -0.01654,-0.08268 -0.03307,-0.04134 0.03721,-0.03307 0.03721,-0.02894 0.09508,-0.02067 h 0.103353 l 0.09922,0.0083 0.07855,0.02894 c 0,0 0.06615,0.04134 0.08682,0.04547 0.02067,0.0041 0.04547,0.02894 0.07028,0.03721 0.0248,0.0083 0.107487,0.04961 0.107487,0.04961 l 0.04961,0.0248 0.04548,0.06201 0.05788,0.04547 0.07441,0.08268 0.04134,0.05788 0.04961,0.07028 0.02894,0.07441 0.165365,-0.04547 0.107487,-0.03307 0.09095,-0.04134 0.103353,-0.03721 0.09508,-0.05374 0.09508,-0.04548 0.05788,-0.04134 0.04961,-0.04134 0.04134,-0.03307 -0.0124,-0.01654 c 0,0 -0.05374,-0.0083 -0.08268,-0.0083 -0.02894,0 -0.124024,0.0124 -0.14056,0.0124 -0.01654,0 -0.115755,-0.04548 -0.115755,-0.04548 l -0.128158,-0.07855 -0.07441,-0.06615 -0.09095,-0.07441 -0.07855,-0.09922 -0.128157,-0.136426 -0.05788,-0.06615 -0.08268,-0.111621 -0.04961,-0.119889 -0.0041,-0.08682 0.16123,-0.206706 0.07855,-0.06201 0.09922,-0.07855 0.132292,-0.04134 0.144694,-0.02894 0.14056,-0.0124 0.132291,0.02894 0.07855,0.04961 0.05374,0.05374 0.06201,0.0083 v -0.04134 l 0.05374,-0.03307 0.144694,-0.0041 0.103353,0.06201 c 0,0 0.05788,0.04134 0.08682,0.05374 0.02894,0.0124 0.124024,0.07028 0.124024,0.07028 l 0.14056,0.09922 0.07028,0.04547 0.115755,0.115755 0.107487,0.09095 0.239778,0.239779 -0.39274,-0.578777 -0.194304,-0.330729 -0.08268,-0.235644 0.0083,-0.14056 0.0041,-0.04547 0.02481,-0.04134 0.06201,-0.03721 0.07028,-0.02067 0.09508,-0.0124 0.09508,-0.0124 0.09508,-0.0083 0.144694,-0.02894 -0.607714,-0.206706 -0.124024,-0.115755 -0.0248,-0.04547 -0.01654,-0.124023 0.0041,-0.07028 0.02481,-0.09095 0.05374,-0.09508 0.07028,-0.103352 0.08682,-0.06615 0.157096,-0.06201 0.124024,-0.06615 0.942578,-0.347265 0.152962,-0.111622 0.02067,-0.05374 -0.07441,0.02481 -0.06201,0.04134 -0.14056,0.03307 c 0,0 -0.115755,0.02894 -0.136426,0.03307 -0.02067,0.0041 -0.300555,0.05181 -0.300555,0.05181 l -0.359561,0.04531 -0.324482,0.0015 h -0.299634 l -0.08916,0.01462 -0.115468,0.09208 -0.371255,-0.135931 0.09062,0.09501 0.04969,0.08185 0.04677,0.10816 0.038,0.125701 -0.09208,0.247015 -0.05366,0.141075 -0.14366,0.336931 -0.179834,0.374137 -0.301791,0.537435 -0.137459,0.204639 -0.10542,0.144694 -0.223242,0.267684 -0.239779,0.235644 -0.189135,0.148828 -0.15503,0.101286 -0.14366,0.07855 -0.149862,0.06097 -0.178801,0.05788 -0.136425,0.02894 -0.06304,3.2e-5 -0.11989,0.01864 -0.09715,-0.0031 -0.09198,-0.0062 -0.09198,-0.01654 -0.06408,-0.0155 0.03307,0.02481 0.02687,0.02687 0.05684,0.05684 0.03307,0.04031 0.03101,0.04444 0.02067,0.05478 -0.04547,-0.21601"
         id="path949"
         inkscape:connector-curvature="0"
         sodipodi:nodetypes="csccccccccccccccccccccccccccccccccccccccccccccccccccccccccccccccccccccccccssccccccccccccccccccccccccsccccccccccccccccccccccccccccccccccccccccccccccccccccccccccccccccccccccccccc" />
    </g>
    <g
       transform="matrix(-0.29999621,-0.80452297,-0.59423448,0.40615927,180.90258,126.77638)"
       id="g957">
      <path
         inkscape:connector-curvature="0"
         id="path953"
         d="m 82.814582,95.321352 c 0,0 1.521354,-2.447396 3.241146,-1.12448 1.719792,1.322917 -0.132292,3.307292 -0.132292,3.307292 0,0 -2.315104,1.124479 -2.778125,-0.463021 -0.46302,-1.5875 -0.330729,-1.719791 -0.330729,-1.719791 z"
         style="fill:#000000;fill-opacity:1;stroke:#000000;stroke-width:0.26458332px;stroke-linecap:butt;stroke-linejoin:miter;stroke-opacity:1" />
      <path
         inkscape:connector-curvature="0"
         id="path955"
         d="m 82.672729,95.599045 0.019,0.138856 0.01754,0.100851 0.02193,0.106699 0.02777,0.141779 0.04239,0.181243 0.0307,0.130085 0.147627,0.545187 0.06577,0.222168 0.03946,0.09793 0.04823,0.102314 0.09208,0.149085 0.07016,0.08624 0.06431,0.07016 0.08624,0.07162 0.08478,0.05993 0.076,0.04385 0.08477,0.04823 0.121315,0.04239 0.1447,0.04531 0.184166,0.02777 0.154932,0.01024 0.171011,0.0029 0.172474,-0.01609 0.149085,-0.01754 0.185629,-0.03362 0.146161,-0.03215 0.206092,-0.05701 0.115466,-0.03654 0.152012,-0.0497 0.21632,-0.08331 0.192934,-0.08331 0.202841,-0.24276 0.115755,-0.163299 0.09922,-0.14986 0.09819,-0.163298 0.10232,-0.189135 0.08888,-0.19327 0.07235,-0.190169 0.05685,-0.183967 0.04134,-0.173633 0.02997,-0.216009 0.0072,-0.11472 V 95.52701 l -0.0072,-0.129194 -0.02479,-0.179832 -0.02997,-0.117824 -0.05478,-0.165365 -0.07545,-0.167431 -0.08888,-0.151929 -0.139525,-0.182933 -0.128159,-0.137459 -0.141592,-0.130225 -0.179834,-0.138493 -0.09784,-0.05649 -0.11507,-0.07374 -0.148828,-0.07545 -0.04961,-0.02066 0.319361,0.02479 0.02687,-0.0011 0.0155,-0.0021 0.0217,-0.0052 h 0.02479 l 0.03411,-0.0031 h 0.01963 l 0.02687,0.0062 0.03307,0.0093 0.02479,0.0031 0.02479,0.01344 0.0031,-0.0052 0.03721,0.01447 0.02585,0.01654 0.02997,0.03928 0.01344,0.0186 0.01757,0.02273 0.06407,0.07441 0.02923,0.04677 0.0088,0.0497 0.0088,0.03215 -0.0029,0.04677 v 0.02339 l 0.0029,0.0029 0.02923,0.01169 c 0,0 0.02045,0.0263 0.03216,0.02923 0.01169,0.0029 0.05554,0.0117 0.05554,0.0117 l 0.0263,0.02045 0.04093,0.038 0.04385,0.03216 0.04385,0.04093 0.02339,0.05554 0.06933,0.09396 0.09199,0.10025 0.06615,0.03927 0.0083,0.07441 0.04754,0.111622 0.07441,0.08268 0.08062,0.101285 0.07235,0.09302 0.09302,0.101285 0.06615,0.08475 0.06821,0.05994 0.08682,0.03307 0.03928,0.01035 -0.04754,0.01654 -0.02273,0.02273 -0.0186,0.03307 -0.09922,0.119888 -0.05994,0.06925 -0.03204,0.06408 -0.03927,0.06615 -0.02479,0.05374 -0.02791,0.06924 -0.03204,0.06201 -0.0072,0.09302 0.0031,0.161232 0.0011,0.09302 -0.0062,0.09922 0.0083,0.08682 0.0341,0.115755 0.04134,0.128159 0.02894,0.06201 0.04651,0.08992 0.03928,0.06098 0.01241,0.02273 -0.0021,0.02273 -0.02997,0.01757 -0.04444,0.06615 -0.04341,0.04651 -0.07441,0.06614 -0.03204,0.03824 -0.06821,0.07752 -0.04857,0.05684 -0.05168,0.04134 -0.04444,0.02687 0.04547,0.08888 0.02585,0.07338 0.03204,0.08268 0.02376,0.08475 -0.0031,0.04857 h -0.19327 l -0.126093,-0.0217 -0.128156,-0.0093 -0.173633,-0.01035 -0.09405,0.0031 -0.137459,-0.0041 -0.120923,0.01757 -0.09302,-0.0021 -0.136427,0.0072 -0.09302,0.02066 -0.100253,0.03204 -0.109553,0.03617 -0.06201,0.04754 -0.06718,0.05374 -0.08475,0.07855 -0.08682,0.07235 -0.07338,0.06511 -0.04341,0.06098 -0.031,0.05581 -0.05995,0.06511 -0.0217,0.04444 -0.08061,0.09922 -0.06615,0.08992 -0.03204,0.05168 -0.06821,0.09095 -0.09405,0.139525 -0.04341,0.07441 -0.06718,0.09508 -0.06098,0.08889 c 0,0 -0.06305,0.06098 -0.06511,0.06511 -0.0021,0.0041 -0.07441,0.109553 -0.07441,0.109553 l -0.04548,0.04444 -0.02894,0.01035 -0.04238,-0.07028 -0.02997,-0.102317 -0.03824,-0.07338 -0.07028,-0.115755 -0.102319,-0.148829 -0.114724,-0.08578 -0.05684,-0.03721 -0.04858,-0.03514 -0.05684,-0.02273 -0.08992,-0.04858 -0.05891,-0.02376 -0.08578,-0.02479 -0.08371,-0.02585 -0.08888,-0.0062 -0.01138,-0.01757 -0.11162,-0.0011 -0.109556,0.0083 -0.09405,-0.01654 -0.03617,-0.04651 -0.06098,-0.01344 -0.05375,-0.02582 -0.0155,-0.05375 -0.06305,-0.05064 h -0.02379 l -0.03514,-0.05891 -0.09405,-0.136427 -0.04547,-0.05581 -0.03204,-0.04754 -0.06821,-0.147796 c 0,0 -0.04961,-0.08268 -0.05168,-0.09198 -0.0021,-0.0093 -0.01963,-0.08992 -0.01963,-0.09405 0,-0.0041 -0.07235,-0.121957 -0.07235,-0.121957 l -0.03204,-0.112654 -0.03307,-0.07752 c 0,0 -0.0052,-0.02894 0.0011,-0.03307 0.0062,-0.0041 -0.140459,-0.524208 -0.140459,-0.524208 v -0.24887 l 0.09292,-0.210841 0.05374,-0.04547 0.04548,0.173633 v 0.103351 l 0.02894,0.136427 0.0083,0.06615 0.02479,0.11162 0.06201,0.103354 0.05374,0.132292 0.09095,0.173633 0.177769,0.148828 0.136424,0.09922 0.177768,0.04547 c 0,0 0.04134,-0.0083 0.03307,-0.02894 -0.0083,-0.02066 -0.152963,-0.256315 -0.152963,-0.256315 l -0.07855,-0.243914 -0.04548,-0.169498 -0.04547,-0.194304 -0.04548,-0.14056 -0.03307,-0.148828 -0.03307,-0.177766 -0.02894,-0.264583 v -0.14056 l -0.0084,-0.06058 -0.0073,-0.05554 -0.0029,-0.04239 -0.0029,-0.05262 v -0.05116 z"
         style="fill:#181818;fill-opacity:1;stroke:#d45757;stroke-width:0;stroke-linecap:butt;stroke-linejoin:miter;stroke-miterlimit:4;stroke-dasharray:none;stroke-opacity:1" />
    </g>
    <path
       style="fill:none;stroke:#000000;stroke-width:0.26458332px;stroke-linecap:butt;stroke-linejoin:miter;stroke-opacity:1"
       d="m 68.942174,102.68503 -0.02339,-1.26285 0.210476,-0.90036 0.280633,-0.39757 0.292325,-0.292324 0.420949,-0.888669 0.65481,-1.894274 0.643117,-0.900364 0.68989,-1.333008 0.584653,-0.841899 0.187089,-0.584652 -0.128624,-0.35079 0.163703,-0.537879 0.514493,-0.526188 0.339098,-0.350792 c 0,0 0.643117,-0.163701 0.68989,-0.187087 0.04677,-0.02339 0.830207,-0.584653 0.830207,-0.584653 l 0.643117,-0.643117 0.795126,-0.783434 0.02339,-0.292325 0.53788,-0.444336 0.713274,-0.467722 h 0.76005 l 0.572958,-0.339098 0.537879,-0.479415 0.339098,-0.152011 0.233863,-0.397563 0.05846,-0.409254 0.268938,-0.222168 0.761484,-0.343308 1.797804,-0.495501 0.606579,0.03068 0.132022,0.09593 0.108521,0.09405 0.122989,0.115755 0.206706,0.124023 0.747241,0.32453 0.258384,-0.05995 0.249079,-0.08061 0.244946,-0.09509 0.142629,-0.05478 0.782381,-0.01138 0.557072,0.05168 0.447516,0.05271 0.655257,0.115755 0.390676,0.109553 0.516763,0.11679 0.58911,0.177768 0.367938,0.107487 0.399976,0.131257 0.234611,0.06718 0.120923,0.06408 0.628385,0.0083 c 0,0 0.08165,-0.02791 0.08785,-0.02791 0.0062,0 0.116789,-0.04961 0.116789,-0.04961 l 0.05994,-0.04857 0.08992,-0.05271 0.245981,-0.0072 c 0,0 0.125058,0.01344 0.166399,0.02687 l 0.628919,0.09103 0.298172,0.09354 0.339099,0.09355 0.333251,0.111084 0.444336,0.228014 0.239707,0.181242 0.116931,0.146163 0.01169,0.163703 0.111084,0.140316 0.076,0.374178 0.122777,0.298172 0.09939,0.122777 0.263094,0.0877 0.339098,0.09939 0.380024,0.04677 0.362484,-0.03508 0.344945,-0.08185 0.280633,0.04093 0.378562,0.233861 0.188554,0.134467 1.409009,1.221923 1.157614,1.467477 0.33229,0.73989 0.01,0.24117 -0.0556,0.17101 -0.0365,0.07308 v 0.119854 l 0.0509,0.134168 0.003,0.117239 0.0349,0.324174 -0.0292,0.24263 -0.0194,0.225399 -0.0176,0.287943 -0.0702,0.178318 0.006,0.382948 0.12758,0.451334 0.0555,0.201705 0.0332,0.17132 0.39172,0.125701 0.21047,0.315711 0.13637,0.275939 0.10816,0.239708 0.16753,0.364259 -0.0477,0.34317 -0.0634,0.264867 0.0234,0.31279 -0.0263,0.204629 0.038,0.26017 0.0751,0.220392 0.0418,0.206403 0.0313,0.264242 0.0585,0.280633 0.0585,0.204628 0.0242,0.139172 0.27772,0.31572 0.12196,0.22038 -0.003,0.29233 0.0768,0.37596 0.0139,0.24962 0.0155,0.33503 -0.007,0.37824 0.01,0.34965 -0.0448,0.29055 -0.13355,0.23272 -0.0409,0.11108 -0.12278,0.14909 -0.0175,0.21046 -0.0323,0.1666 -0.0468,0.038 -0.0125,0.23796 0.39461,0.6835 0.13552,0.55339 -0.33073,0.3638 -0.5636,0.12291 v 0.0731 l -0.1111,0.56419 -0.1052,0.47941 0.1783,0.39172 -0.30106,0.30988 -0.2193,0.37127 -0.3509,0.90036 -0.1784,0.42095 -0.0378,0.49696 0.45605,0.40354 0.17831,0.3654 2.4e-4,0.0346 -2.021428,3.62631 -0.314769,-0.0449 -0.68112,0.33624 -0.2309,0.0234 -0.585633,0.11203 -1.831857,0.98121 -0.10232,0.003 -0.006,0.13154 -0.0643,0.11986 -0.34787,0.23094 -0.27478,0.0906 -0.25433,0.12278 -0.304897,0.11203 -0.26017,0.0614 -0.391717,0.13739 -0.444335,0.14032 -0.422991,0.11603 -0.37126,0.1754 -0.313665,0.22891 -0.263093,0.25725 -0.235902,0.29727 -0.21049,0.32449 -0.3654,0.19001 -0.30987,0.11693 -1.11084,0.0437 -0.19291,-0.1052 -0.27186,0.0117 -0.179217,-0.0604 -1.004705,-0.20851 -0.587574,0.0585 -0.637273,-0.0176 -0.09062,0.0175 -0.505726,0.27772 -0.333251,0.23094 -0.521163,-0.001 -0.504362,0.0331 -0.643657,0.2251 -0.362484,0.26601 -0.548286,0.0546 -0.562412,-0.0977 -0.603409,-0.17512 -3.237008,-1.0748 -0.793093,-0.42871 -0.374176,-0.73958 -0.312767,-0.66065 -0.417526,-0.42009 -1.256771,-0.75241 -0.537435,0.008 -1.72806,-1.71153 0.09095,-0.12402 0.04134,-0.34727 -0.115755,-0.51263 -0.06615,-0.30592 0.04961,-0.10749 -0.330729,-0.32246 -0.727604,-0.97565 -0.802018,-1.45521 c 0,0 -0.413412,-1.00872 -0.446485,-1.04179 -0.03307,-0.0331 -0.37207,-0.91778 -0.37207,-0.91778 l -0.198437,-0.56224 -0.347266,-0.3886 -0.372642,-0.33744 -0.245555,-0.21047 -0.431868,-1.2215 -0.124024,-0.86816 -0.05799,-0.66406 z"
       id="path959"
       inkscape:connector-curvature="0" />
    <path
       style="fill:none;stroke:#000000;stroke-width:0.1;stroke-linecap:butt;stroke-linejoin:miter;stroke-miterlimit:4;stroke-dasharray:none;stroke-opacity:1"
       d="m 95.432752,88.752774 c 0,0 1.385633,3.876239 2.695255,4.683059"
       id="path961"
       inkscape:connector-curvature="0" />
    <path
       style="fill:none;stroke:#000000;stroke-width:0.065;stroke-linecap:butt;stroke-linejoin:miter;stroke-miterlimit:4;stroke-dasharray:none;stroke-opacity:1"
       d="m 99.496093,94.020485 c 0,0 1.290477,0.764741 1.316577,0.389102"
       id="path963"
       inkscape:connector-curvature="0" />
    <path
       style="fill:none;stroke:#000000;stroke-width:0.065;stroke-linecap:butt;stroke-linejoin:miter;stroke-miterlimit:4;stroke-dasharray:none;stroke-opacity:1"
       d="m 80.214265,87.250211 c 0,0 1.756958,0.861245 2.699536,0.513979"
       id="path965"
       inkscape:connector-curvature="0" />
    <path
       style="fill:none;stroke:#000000;stroke-width:0.16500001;stroke-linecap:butt;stroke-linejoin:miter;stroke-miterlimit:4;stroke-dasharray:none;stroke-opacity:1"
       d="m 71.093694,103.31645 c 0,0 1.332998,-1.96443 -0.970528,-4.373193"
       id="path967"
       inkscape:connector-curvature="0" />
    <path
       style="fill:none;stroke:#000000;stroke-width:0.065;stroke-linecap:butt;stroke-linejoin:miter;stroke-miterlimit:4;stroke-dasharray:none;stroke-opacity:1"
       d="m 77.229395,115.73148 c 1.992643,-0.12403 2.273763,0.008 2.273763,0.008"
       id="path971"
       inkscape:connector-curvature="0" />
    <path
       style="fill:none;stroke:#000000;stroke-width:0.065;stroke-linecap:butt;stroke-linejoin:miter;stroke-miterlimit:4;stroke-dasharray:none;stroke-opacity:1"
       d="m 84.753483,118.60055 c -0.686263,-0.96738 -0.314192,-0.93431 -1.343588,-1.45521 -1.029393,-0.52089 -1.897557,-0.84749 -1.897557,-0.84749"
       id="path973"
       inkscape:connector-curvature="0" />
    <path
       style="fill:none;stroke:#000000;stroke-width:0.065;stroke-linecap:butt;stroke-linejoin:miter;stroke-miterlimit:4;stroke-dasharray:none;stroke-opacity:1"
       d="m 98.49728,114.40046 c 0.308922,-2.78195 0.963732,-3.13274 0.963732,-3.13274"
       id="path975"
       inkscape:connector-curvature="0" />
    <g
       id="g988">
      <path
         inkscape:connector-curvature="0"
         id="path977"
         d="m 71.933593,105.52435 0.30602,-0.33993 0.266014,0.0468 0.14324,0.26894 -0.03215,0.59927 -0.0877,-0.003 -0.169548,0.10524 -0.298172,-0.29525 z"
         style="fill:none;fill-opacity:1;stroke:#000000;stroke-width:0.065;stroke-linecap:butt;stroke-linejoin:miter;stroke-miterlimit:4;stroke-dasharray:none;stroke-opacity:1" />
      <path
         inkscape:connector-curvature="0"
         id="path981"
         d="m 72.505627,105.23122 v 0 l 0.09355,-0.0176 0.144701,0.21632 0.127161,0.18855 -0.0044,0.28648 0.0088,0.17686 -0.01024,0.0745 -0.100854,0.14617 -0.07162,0.0979 -0.21486,-0.057 -0.118388,-0.14182 0.169547,-0.10524 0.0877,0.003 0.03215,-0.59927 z"
         style="fill:#050000;fill-opacity:1;stroke:none;stroke-width:0.26458332px;stroke-linecap:butt;stroke-linejoin:miter;stroke-opacity:1" />
      <path
         inkscape:connector-curvature="0"
         id="path983"
         d="m 72.599176,105.21362 -0.01654,-0.08 0.08785,-10e-4 0.16433,0.0992 0.181901,0.0951 0.04857,0.13642 0.03411,0.12403 0.02791,0.0992 -0.02585,0.2036 -0.03514,0.0806 -0.0186,0.12609 -0.01654,0.0868 -0.04548,0.10232 -0.145727,0.13023 -0.04031,0.0331 -0.11679,-0.03 -0.101285,-0.0165 -0.03307,-0.0455 0.144182,0.043 0.172474,-0.24407 0.0058,-0.53784 z"
         style="fill:#2f2f2f;fill-opacity:1;stroke:none;stroke-width:0.26458332px;stroke-linecap:butt;stroke-linejoin:miter;stroke-opacity:1" />
    </g>
    <g
       id="g996"
       transform="matrix(1,0,0,1.3463447,-0.33730797,-42.931515)">
      <path
         style="fill:none;fill-opacity:1;stroke:#000000;stroke-width:0.065;stroke-linecap:butt;stroke-linejoin:miter;stroke-miterlimit:4;stroke-dasharray:none;stroke-opacity:1"
         d="m 71.933593,105.52435 0.30602,-0.33993 0.266014,0.0468 0.14324,0.26894 -0.03215,0.59927 -0.0877,-0.003 -0.169548,0.10524 -0.298172,-0.29525 z"
         id="path990"
         inkscape:connector-curvature="0" />
      <path
         style="fill:#050000;fill-opacity:1;stroke:none;stroke-width:0.26458332px;stroke-linecap:butt;stroke-linejoin:miter;stroke-opacity:1"
         d="m 72.505627,105.23122 v 0 l 0.09355,-0.0176 0.144701,0.21632 0.127161,0.18855 -0.0044,0.28648 0.0088,0.17686 -0.01024,0.0745 -0.100854,0.14617 -0.07162,0.0979 -0.21486,-0.057 -0.118388,-0.14182 0.169547,-0.10524 0.0877,0.003 0.03215,-0.59927 z"
         id="path992"
         inkscape:connector-curvature="0" />
      <path
         style="fill:#2f2f2f;fill-opacity:1;stroke:none;stroke-width:0.26458332px;stroke-linecap:butt;stroke-linejoin:miter;stroke-opacity:1"
         d="m 72.599176,105.21362 -0.01654,-0.08 0.08785,-10e-4 0.16433,0.0992 0.181901,0.0951 0.04857,0.13642 0.03411,0.12403 0.02791,0.0992 -0.02585,0.2036 -0.03514,0.0806 -0.0186,0.12609 -0.01654,0.0868 -0.04548,0.10232 -0.145727,0.13023 -0.04031,0.0331 -0.11679,-0.03 -0.101285,-0.0165 -0.03307,-0.0455 0.144182,0.043 0.172474,-0.24407 0.0058,-0.53784 z"
         id="path994"
         inkscape:connector-curvature="0" />
    </g>
    <g
       transform="matrix(0.50646372,0.6414598,-0.86362599,0.68187476,134.4675,-19.850029)"
       id="g1004">
      <path
         inkscape:connector-curvature="0"
         id="path998"
         d="m 71.933593,105.52435 0.30602,-0.33993 0.266014,0.0468 0.14324,0.26894 -0.03215,0.59927 -0.0877,-0.003 -0.169548,0.10524 -0.298172,-0.29525 z"
         style="fill:none;fill-opacity:1;stroke:#000000;stroke-width:0.065;stroke-linecap:butt;stroke-linejoin:miter;stroke-miterlimit:4;stroke-dasharray:none;stroke-opacity:1" />
      <path
         inkscape:connector-curvature="0"
         id="path1000"
         d="m 72.505627,105.23122 v 0 l 0.09355,-0.0176 0.144701,0.21632 0.127161,0.18855 -0.0044,0.28648 0.0088,0.17686 -0.01024,0.0745 -0.100854,0.14617 -0.07162,0.0979 -0.21486,-0.057 -0.118388,-0.14182 0.169547,-0.10524 0.0877,0.003 0.03215,-0.59927 z"
         style="fill:#050000;fill-opacity:1;stroke:none;stroke-width:0.26458332px;stroke-linecap:butt;stroke-linejoin:miter;stroke-opacity:1" />
      <path
         inkscape:connector-curvature="0"
         id="path1002"
         d="m 72.599176,105.21362 -0.01654,-0.08 0.08785,-10e-4 0.16433,0.0992 0.181901,0.0951 0.04857,0.13642 0.03411,0.12403 0.02791,0.0992 -0.02585,0.2036 -0.03514,0.0806 -0.0186,0.12609 -0.01654,0.0868 -0.04548,0.10232 -0.145727,0.13023 -0.04031,0.0331 -0.11679,-0.03 -0.101285,-0.0165 -0.03307,-0.0455 0.144182,0.043 0.172474,-0.24407 0.0058,-0.53784 z"
         style="fill:#2f2f2f;fill-opacity:1;stroke:none;stroke-width:0.26458332px;stroke-linecap:butt;stroke-linejoin:miter;stroke-opacity:1" />
    </g>
    <g
       id="g1012"
       transform="matrix(0.50646372,0.6414598,-0.86362599,0.68187476,134.4675,-19.850029)">
      <path
         style="fill:none;fill-opacity:1;stroke:#000000;stroke-width:0.065;stroke-linecap:butt;stroke-linejoin:miter;stroke-miterlimit:4;stroke-dasharray:none;stroke-opacity:1"
         d="m 71.933593,105.52435 0.30602,-0.33993 0.266014,0.0468 0.14324,0.26894 -0.03215,0.59927 -0.0877,-0.003 -0.169548,0.10524 -0.298172,-0.29525 z"
         id="path1006"
         inkscape:connector-curvature="0" />
      <path
         style="fill:#050000;fill-opacity:1;stroke:none;stroke-width:0.26458332px;stroke-linecap:butt;stroke-linejoin:miter;stroke-opacity:1"
         d="m 72.505627,105.23122 v 0 l 0.09355,-0.0176 0.144701,0.21632 0.127161,0.18855 -0.0044,0.28648 0.0088,0.17686 -0.01024,0.0745 -0.100854,0.14617 -0.07162,0.0979 -0.21486,-0.057 -0.118388,-0.14182 0.169547,-0.10524 0.0877,0.003 0.03215,-0.59927 z"
         id="path1008"
         inkscape:connector-curvature="0" />
      <path
         style="fill:#2f2f2f;fill-opacity:1;stroke:none;stroke-width:0.26458332px;stroke-linecap:butt;stroke-linejoin:miter;stroke-opacity:1"
         d="m 72.599176,105.21362 -0.01654,-0.08 0.08785,-10e-4 0.16433,0.0992 0.181901,0.0951 0.04857,0.13642 0.03411,0.12403 0.02791,0.0992 -0.02585,0.2036 -0.03514,0.0806 -0.0186,0.12609 -0.01654,0.0868 -0.04548,0.10232 -0.145727,0.13023 -0.04031,0.0331 -0.11679,-0.03 -0.101285,-0.0165 -0.03307,-0.0455 0.144182,0.043 0.172474,-0.24407 0.0058,-0.53784 z"
         id="path1010"
         inkscape:connector-curvature="0" />
    </g>
    <g
       id="g1036"
       transform="matrix(-1.9111234,0.75092607,-0.91882757,-1.5618952,304.76809,216.8362)">
      <path
         inkscape:connector-curvature="0"
         id="path1014"
         d="m 62.614234,96.469409 0.44856,-0.03549 0.09431,0.202549 -0.159718,0.275266 -0.533828,0.388004 -0.04183,-0.0583 -0.176758,-0.037 0.103973,-0.392589 z"
         style="fill:#2f2f2f;fill-opacity:1;stroke:#000000;stroke-width:0.06164132;stroke-linecap:butt;stroke-linejoin:miter;stroke-miterlimit:4;stroke-dasharray:none;stroke-opacity:1" />
      <path
         inkscape:connector-curvature="0"
         id="path1016"
         d="m 63.157103,96.636468 v 0 l 0.06258,0.04801 -0.113534,0.240323 -0.09843,0.210137 -0.249641,0.192521 -0.148284,0.126241 -0.06953,0.04423 -0.177315,0.03498 -0.120822,0.02081 -0.05959,-0.176691 0.06252,-0.172644 0.176758,0.037 0.04183,0.0583 0.533828,-0.388004 z"
         style="fill:#050000;fill-opacity:1;stroke:none;stroke-width:0.2509118px;stroke-linecap:butt;stroke-linejoin:miter;stroke-opacity:1" />
      <path
         inkscape:connector-curvature="0"
         id="path1018"
         d="m 63.219682,96.684475 0.06071,-0.06516 0.04536,0.05567 -0.0024,0.173054 0.01,0.181528 -0.09322,0.124177 -0.08984,0.106453 -0.07154,0.08554 -0.188926,0.122248 -0.08741,0.03242 -0.118315,0.07405 -0.08334,0.04858 -0.1114,0.0406 -0.186276,-0.0047 -0.049,-0.0033 -0.03324,-0.09537 -0.03705,-0.07622 0.02255,-0.05224 0.03589,0.121808 0.298137,-0.05579 0.46743,-0.363019 z"
         style="fill:#2f2f2f;fill-opacity:1;stroke:none;stroke-width:0.2509118px;stroke-linecap:butt;stroke-linejoin:miter;stroke-opacity:1" />
    </g>
    <g
       id="g1028"
       transform="matrix(1.1209025,-0.04952154,0.06667309,1.5091212,0.22584828,-61.268493)">
      <path
         style="fill:none;fill-opacity:1;stroke:#000000;stroke-width:0.065;stroke-linecap:butt;stroke-linejoin:miter;stroke-miterlimit:4;stroke-dasharray:none;stroke-opacity:1"
         d="m 71.933593,105.52435 0.30602,-0.33993 0.266014,0.0468 0.14324,0.26894 -0.03215,0.59927 -0.0877,-0.003 -0.169548,0.10524 -0.298172,-0.29525 z"
         id="path1022"
         inkscape:connector-curvature="0" />
      <path
         style="fill:#050000;fill-opacity:1;stroke:none;stroke-width:0.26458332px;stroke-linecap:butt;stroke-linejoin:miter;stroke-opacity:1"
         d="m 72.505627,105.23122 v 0 l 0.09355,-0.0176 0.144701,0.21632 0.127161,0.18855 -0.0044,0.28648 0.0088,0.17686 -0.01024,0.0745 -0.100854,0.14617 -0.07162,0.0979 -0.21486,-0.057 -0.118388,-0.14182 0.169547,-0.10524 0.0877,0.003 0.03215,-0.59927 z"
         id="path1024"
         inkscape:connector-curvature="0" />
      <path
         style="fill:#2f2f2f;fill-opacity:1;stroke:none;stroke-width:0.26458332px;stroke-linecap:butt;stroke-linejoin:miter;stroke-opacity:1"
         d="m 72.599176,105.21362 -0.01654,-0.08 0.08785,-10e-4 0.16433,0.0992 0.181901,0.0951 0.04857,0.13642 0.03411,0.12403 0.02791,0.0992 -0.02585,0.2036 -0.03514,0.0806 -0.0186,0.12609 -0.01654,0.0868 -0.04548,0.10232 -0.145727,0.13023 -0.04031,0.0331 -0.11679,-0.03 -0.101285,-0.0165 -0.03307,-0.0455 0.144182,0.043 0.172474,-0.24407 0.0058,-0.53784 z"
         id="path1026"
         inkscape:connector-curvature="0" />
    </g>
    <g
       id="g1044"
       transform="matrix(-0.9357201,0.86805647,-1.2607405,-0.87453422,280.80828,132.62658)">
      <path
         style="fill:#2f2f2f;fill-opacity:1;stroke:#000000;stroke-width:0.06164132;stroke-linecap:butt;stroke-linejoin:miter;stroke-miterlimit:4;stroke-dasharray:none;stroke-opacity:1"
         d="m 62.614234,96.469409 0.44856,-0.03549 0.09431,0.202549 -0.159718,0.275266 -0.533828,0.388004 -0.04183,-0.0583 -0.176758,-0.037 0.103973,-0.392589 z"
         id="path1038"
         inkscape:connector-curvature="0" />
      <path
         style="fill:#050000;fill-opacity:1;stroke:none;stroke-width:0.2509118px;stroke-linecap:butt;stroke-linejoin:miter;stroke-opacity:1"
         d="m 63.157103,96.636468 v 0 l 0.06258,0.04801 -0.113534,0.240323 -0.09843,0.210137 -0.249641,0.192521 -0.148284,0.126241 -0.06953,0.04423 -0.177315,0.03498 -0.120822,0.02081 -0.05959,-0.176691 0.06252,-0.172644 0.176758,0.037 0.04183,0.0583 0.533828,-0.388004 z"
         id="path1040"
         inkscape:connector-curvature="0" />
      <path
         style="fill:#2f2f2f;fill-opacity:1;stroke:none;stroke-width:0.2509118px;stroke-linecap:butt;stroke-linejoin:miter;stroke-opacity:1"
         d="m 63.219682,96.684475 0.06071,-0.06516 0.04536,0.05567 -0.0024,0.173054 0.01,0.181528 -0.09322,0.124177 -0.08984,0.106453 -0.07154,0.08554 -0.188926,0.122248 -0.08741,0.03242 -0.118315,0.07405 -0.08334,0.04858 -0.1114,0.0406 -0.186276,-0.0047 -0.049,-0.0033 -0.03324,-0.09537 -0.03705,-0.07622 0.02255,-0.05224 0.03589,0.121808 0.298137,-0.05579 0.46743,-0.363019 z"
         id="path1042"
         inkscape:connector-curvature="0" />
    </g>
  </g>
</svg>
